<svg width="256" height="256" viewBox="0 0 256 256" fill="none" xmlns="http://www.w3.org/2000/svg">
<g clip-path="url(#clip0_304_11548)">
<path d="M196 0H60C26.8629 0 0 26.8629 0 60V196C0 229.137 26.8629 256 60 256H196C229.137 256 256 229.137 256 196V60C256 26.8629 229.137 0 196 0Z" fill="#330000"/>
<path d="M123.733 152.333H84.053L75.9464 177.4C75.733 178.36 74.8797 179 73.9197 178.893H53.8664C52.693 178.893 52.373 178.253 52.693 176.973L87.0397 78.0935C87.3597 77.0268 87.6797 75.8535 88.1064 74.5735C88.533 72.3335 88.7464 69.9868 88.7464 67.6401C88.6397 67.1068 89.0664 66.5735 89.5997 66.4668H89.9197H117.226C118.08 66.4668 118.506 66.7868 118.613 67.3201L157.546 177.187C157.866 178.36 157.546 178.893 156.48 178.893H134.186C133.44 179 132.693 178.467 132.48 177.72L123.733 152.333ZM90.2397 130.68H117.333C116.693 128.44 115.84 125.773 114.88 123C113.92 120.12 112.96 117.027 112 113.827C110.933 110.52 109.973 107.32 108.906 104.013C107.84 100.707 106.88 97.6135 106.026 94.5201C105.173 91.5335 104.426 88.7601 103.68 86.2001H103.466C102.506 90.7868 101.333 95.3735 99.8397 99.9601C98.2397 105.08 96.6397 110.413 94.933 115.747C93.4397 121.187 91.8397 126.2 90.2397 130.68Z" fill="#FF9A00"/>
<path d="M181.333 85.1332C177.813 85.2399 174.4 83.8532 171.84 81.3999C169.387 78.7332 168.107 75.2132 168.213 71.5866C168.107 67.9599 169.493 64.5466 172.053 62.0932C174.613 59.6399 178.027 58.3599 181.547 58.3599C185.707 58.3599 188.907 59.6399 191.253 62.0932C193.6 64.6532 194.88 68.0666 194.773 71.5866C194.88 75.2132 193.6 78.7332 191.04 81.3999C188.587 83.9599 184.96 85.3466 181.333 85.1332ZM169.387 177.72V95.5866C169.387 94.5199 169.813 94.0932 170.773 94.0932H191.893C192.853 94.0932 193.28 94.6266 193.28 95.5866V177.72C193.28 178.893 192.853 179.427 191.893 179.427H170.987C169.92 179.427 169.387 178.787 169.387 177.72Z" fill="#FF9A00"/>
</g>
<defs>
<clipPath id="clip0_304_11548">
<rect width="256" height="256" fill="white"/>
</clipPath>
</defs>
</svg>
