<svg width="96" height="96" viewBox="0 0 96 96" fill="none" xmlns="http://www.w3.org/2000/svg">
<g clip-path="url(#clip0_304_14455)">
<path d="M73.5 0H22.5C10.0736 0 0 10.0736 0 22.5V73.5C0 85.9264 10.0736 96 22.5 96H73.5C85.9264 96 96 85.9264 96 73.5V22.5C96 10.0736 85.9264 0 73.5 0Z" fill="url(#paint0_linear_304_14455)"/>
<path fill-rule="evenodd" clip-rule="evenodd" d="M59.1446 12.3792C59.7574 13.1396 60.0694 14.1661 60.6941 16.218L74.3426 61.0534C69.216 58.3931 63.7136 56.5301 58.0252 55.5289L49.1389 25.4989C49.068 25.2594 48.9214 25.0491 48.7211 24.8997C48.5209 24.7503 48.2779 24.6698 48.0281 24.6701C47.778 24.6705 47.535 24.7517 47.3355 24.9017C47.1356 25.0517 46.9898 25.2623 46.9196 25.5021L38.1405 55.5139C32.4266 56.5103 26.899 58.3763 21.75 61.0466L35.465 16.2079C36.0922 14.1588 36.4051 13.1346 37.0177 12.3757C37.5585 11.7055 38.262 11.1849 39.0611 10.8637C39.9664 10.5 41.0374 10.5 43.1801 10.5H52.9763C55.1216 10.5 56.1941 10.5 57.1001 10.8646C57.9 11.1865 58.6039 11.7079 59.1446 12.3792Z" fill="#31274A"/>
<path fill-rule="evenodd" clip-rule="evenodd" d="M60.7778 63.1871C58.5278 65.1113 54.0368 66.423 48.8641 66.423C42.5149 66.423 37.1933 64.4464 35.7815 61.7884C35.2766 63.312 35.1635 65.0554 35.1635 66.1695C35.1635 66.1695 34.8307 71.6389 38.6348 75.4429C38.6348 73.4674 40.2361 71.8661 42.2116 71.8661C45.5971 71.8661 45.5933 74.82 45.5899 77.2166V77.4304C45.5899 81.0679 47.8129 84.186 50.9746 85.5C50.4878 84.4984 50.2358 83.3993 50.2373 82.2855C50.2373 78.8164 52.2743 77.5245 54.6413 76.0238C56.5246 74.8294 58.6171 73.5023 60.0593 70.8398C60.8359 69.4058 61.2413 67.8004 61.2387 66.1695C61.2387 65.1296 61.0771 64.1276 60.7778 63.1871Z" fill="#FF5D01"/>
<path fill-rule="evenodd" clip-rule="evenodd" d="M60.7778 63.1871C58.5278 65.1113 54.0368 66.423 48.8641 66.423C42.5149 66.423 37.1933 64.4464 35.7815 61.7884C35.2766 63.312 35.1635 65.0554 35.1635 66.1695C35.1635 66.1695 34.8307 71.6389 38.6348 75.4429C38.6348 73.4674 40.2361 71.8661 42.2116 71.8661C45.5971 71.8661 45.5933 74.82 45.5899 77.2166V77.4304C45.5899 81.0679 47.8129 84.186 50.9746 85.5C50.4878 84.4984 50.2358 83.3993 50.2373 82.2855C50.2373 78.8164 52.2743 77.5245 54.6413 76.0238C56.5246 74.8294 58.6171 73.5023 60.0593 70.8398C60.8359 69.4058 61.2413 67.8004 61.2387 66.1695C61.2387 65.1296 61.0771 64.1276 60.7778 63.1871Z" fill="url(#paint1_linear_304_14455)"/>
</g>
<defs>
<linearGradient id="paint0_linear_304_14455" x1="48" y1="0" x2="48" y2="96" gradientUnits="userSpaceOnUse">
<stop offset="0.192708" stop-color="#FCB3B2"/>
<stop offset="1" stop-color="#C587EE"/>
</linearGradient>
<linearGradient id="paint1_linear_304_14455" x1="70.9084" y1="47.5369" x2="57.5869" y2="75.4245" gradientUnits="userSpaceOnUse">
<stop stop-color="#FF1639"/>
<stop offset="1" stop-color="#FF1639" stop-opacity="0"/>
</linearGradient>
<clipPath id="clip0_304_14455">
<rect width="96" height="96" fill="white"/>
</clipPath>
</defs>
</svg>
