<svg width="96" height="96" viewBox="0 0 96 96" fill="none" xmlns="http://www.w3.org/2000/svg">
<g clip-path="url(#clip0_304_14460)">
<path d="M73.5 0H22.5C10.0736 0 0 10.0736 0 22.5V73.5C0 85.9264 10.0736 96 22.5 96H73.5C85.9264 96 96 85.9264 96 73.5V22.5C96 10.0736 85.9264 0 73.5 0Z" fill="#0277BD"/>
<path d="M20.1572 38.4941L21.2308 50.4724H48.036V38.4941H20.1572Z" fill="#EBEBEB"/>
<path d="M48.0356 14.25H47.9944H18L19.0888 26.2284H48.0356V14.25Z" fill="#EBEBEB"/>
<path d="M48.0357 82.0654V69.603L47.9832 69.6169L34.643 66.015L33.7903 56.4615H27.3079H21.766L23.4441 75.2692L47.9806 82.0807L48.0357 82.0654Z" fill="#EBEBEB"/>
<path d="M62.7443 50.4724L61.3538 66.0071L47.9944 69.6131V82.0748L72.5505 75.2693L72.7305 73.2454L75.5453 41.7109L75.8374 38.4941L78 14.25H47.9944V26.2284H64.8728L63.783 38.4941H47.9944V50.4724H62.7443Z" fill="white"/>
</g>
<defs>
<clipPath id="clip0_304_14460">
<rect width="96" height="96" fill="white"/>
</clipPath>
</defs>
</svg>
