<svg width="85" height="28" viewBox="0 0 85 28" fill="none" xmlns="http://www.w3.org/2000/svg">
<rect width="85" height="28" rx="3" fill="#5A5AED"/>
<g clip-path="url(#clip0_304_16395)">
<path fill-rule="evenodd" clip-rule="evenodd" d="M12.5366 6C11.1357 6 10 7.13567 10 8.53659V19.4634C10 20.8643 11.1357 22 12.5366 22H23.4634C24.8643 22 26 20.8643 26 19.4634V8.53659C26 7.13567 24.8643 6 23.4634 6H12.5366ZM13.561 11.2683C13.561 11.0805 13.7146 10.9268 13.9024 10.9268H22.0976C22.2854 10.9268 22.439 11.0805 22.439 11.2683V11.74L18.7598 14.7619C18.318 15.1247 17.6841 15.1247 17.2424 14.7619L13.561 11.74V11.2683ZM13.561 16.7317V13.0652L16.5915 15.5537C17.4089 16.2259 18.589 16.2259 19.4085 15.5537L22.439 13.0652V16.7317C22.439 16.9195 22.2854 17.0732 22.0976 17.0732H13.9024C13.7146 17.0732 13.561 16.9195 13.561 16.7317ZM13.9024 9.90244C13.1491 9.90244 12.5366 10.515 12.5366 11.2683V16.7317C12.5366 17.4851 13.1491 18.0976 13.9024 18.0976H22.0976C22.8509 18.0976 23.4634 17.4851 23.4634 16.7317V11.2683C23.4634 10.515 22.8509 9.90244 22.0976 9.90244H13.9024Z" fill="#FFFBF7"/>
</g>
<path d="M32.9325 18.5V9.04545H39.0817V10.4812H34.6452V13.0479H38.7631V14.4837H34.6452V17.0643H39.1186V18.5H32.9325ZM41.479 9.04545H43.5749L46.3817 15.8963H46.4925L49.2993 9.04545H51.3952V18.5H49.7517V12.0046H49.664L47.0511 18.4723H45.8231L43.2102 11.9908H43.1225V18.5H41.479V9.04545ZM55.1244 18.5H53.2963L56.6248 9.04545H58.7391L62.0722 18.5H60.2441L57.7189 10.9844H57.645L55.1244 18.5ZM55.1844 14.793H60.1702V16.1687H55.1844V14.793ZM65.6802 9.04545V18.5H63.9675V9.04545H65.6802ZM68.1849 18.5V9.04545H69.8976V17.0643H74.0616V18.5H68.1849Z" fill="#FFFBF7"/>
<defs>
<clipPath id="clip0_304_16395">
<rect width="16" height="16" fill="white" transform="translate(10 6)"/>
</clipPath>
</defs>
</svg>
