<svg width="96" height="96" viewBox="0 0 96 96" fill="none" xmlns="http://www.w3.org/2000/svg">
<g clip-path="url(#clip0_304_14466)">
<path d="M73.5 0H22.5C10.0736 0 0 10.0736 0 22.5V73.5C0 85.9264 10.0736 96 22.5 96H73.5C85.9264 96 96 85.9264 96 73.5V22.5C96 10.0736 85.9264 0 73.5 0Z" fill="#242938"/>
<path d="M85.5 68.6013C84.4083 69.015 83.2031 69.0139 82.1118 68.5991C81.021 68.184 80.1195 67.3837 79.5783 66.3495C76.1797 61.2619 72.4267 56.4037 68.8196 51.4414L67.2555 49.3564C62.9602 55.1111 58.665 60.6364 54.7451 66.3705C54.2343 67.359 53.382 68.1281 52.3462 68.5346C51.3105 68.9415 50.1622 68.9576 49.1156 68.5807L65.2331 46.9586L50.2414 27.4213C51.3206 27.0317 52.5011 27.0263 53.5837 27.4062C54.6663 27.7861 55.5847 28.5279 56.184 29.5064C59.6659 34.594 63.5235 39.4522 67.3597 44.6025C71.2174 39.4939 75.033 34.6148 78.5985 29.569C79.1118 28.5965 79.965 27.8467 80.9955 27.4623C82.0256 27.0778 83.1615 27.0855 84.1863 27.4839L78.369 35.1986C75.7627 38.6389 73.1981 42.1001 70.4876 45.4571C70.269 45.6529 70.0942 45.8921 69.9746 46.1599C69.855 46.4276 69.7931 46.7175 69.7931 47.0107C69.7931 47.3036 69.855 47.5935 69.9746 47.8612C70.0942 48.129 70.269 48.3682 70.4876 48.564C75.471 55.1737 80.4123 61.8041 85.5 68.6013Z" fill="white"/>
<path d="M10.5 46.6875C10.9378 44.6025 11.2089 42.3296 11.8136 40.203C15.4207 27.3798 30.1205 22.0421 40.233 29.9862C46.1546 34.6359 47.6351 41.2249 47.3434 48.6476H13.9821C13.44 61.9088 23.0104 69.9154 35.2498 65.8286C37.2352 65.1184 39.0124 63.9251 40.4212 62.3561C41.8301 60.7871 42.8257 58.8919 43.3189 56.8418C43.9654 54.7568 45.0079 54.4024 46.9886 55.0069C46.6624 57.5453 45.765 59.9768 44.3636 62.1184C42.9626 64.26 41.094 66.0559 38.8987 67.3714C35.2715 69.3551 31.11 70.1408 27.0093 69.6165C22.9085 69.0923 19.0786 67.2848 16.0671 64.4524C13.0879 61.1025 11.2865 56.8703 10.9379 52.4006C10.9379 51.6919 10.6668 50.9828 10.5208 50.3156C10.5069 49.0785 10.5 47.8691 10.5 46.6875ZM14.0238 45.7909H44.1949C44.007 36.1788 37.9395 29.3607 29.8495 29.2981C20.8419 29.173 14.3991 35.8452 14.0029 45.7493L14.0238 45.7909Z" fill="white"/>
</g>
<defs>
<clipPath id="clip0_304_14466">
<rect width="96" height="96" fill="white"/>
</clipPath>
</defs>
</svg>
