<svg width="96" height="96" viewBox="0 0 96 96" fill="none" xmlns="http://www.w3.org/2000/svg">
<g clip-path="url(#clip0_304_14470)">
<path d="M73.5 0H22.5C10.0736 0 0 10.0736 0 22.5V73.5C0 85.9264 10.0736 96 22.5 96H73.5C85.9264 96 96 85.9264 96 73.5V22.5C96 10.0736 85.9264 0 73.5 0Z" fill="#242938"/>
<mask id="mask0_304_14470" style="mask-type:luminance" maskUnits="userSpaceOnUse" x="22" y="10" width="51" height="76">
<path d="M72.885 10.5H22.875V85.5H72.885V10.5Z" fill="white"/>
</mask>
<g mask="url(#mask0_304_14470)">
<path d="M35.38 85.5C42.2801 85.5 47.88 79.9001 47.88 73.0001V60.4999H35.38C28.48 60.4999 22.88 66.1001 22.88 73.0001C22.88 79.9001 28.48 85.5 35.38 85.5Z" fill="#0ACF83"/>
<path d="M22.88 48C22.88 41.1 28.48 35.5 35.38 35.5H47.88V60.4999H35.38C28.48 60.4999 22.88 54.9 22.88 48Z" fill="#A259FF"/>
<path d="M22.88 23C22.88 16.1 28.48 10.5 35.38 10.5H47.88V35.5H35.38C28.48 35.5 22.88 29.9 22.88 23Z" fill="#F24E1E"/>
<path d="M47.88 10.5H60.3799C67.2799 10.5 72.8801 16.1 72.8801 23C72.8801 29.9 67.2799 35.5 60.3799 35.5H47.88V10.5Z" fill="#FF7262"/>
<path d="M72.8801 48C72.8801 54.9 67.2799 60.4999 60.3799 60.4999C53.4799 60.4999 47.88 54.9 47.88 48C47.88 41.1 53.4799 35.5 60.3799 35.5C67.2799 35.5 72.8801 41.1 72.8801 48Z" fill="#1ABCFE"/>
</g>
</g>
<defs>
<clipPath id="clip0_304_14470">
<rect width="96" height="96" fill="white"/>
</clipPath>
</defs>
</svg>
