<svg width="96" height="96" viewBox="0 0 96 96" fill="none" xmlns="http://www.w3.org/2000/svg">
<g clip-path="url(#clip0_304_14481)">
<path d="M73.5 0H22.5C10.0736 0 0 10.0736 0 22.5V73.5C0 85.9264 10.0736 96 22.5 96H73.5C85.9264 96 96 85.9264 96 73.5V22.5C96 10.0736 85.9264 0 73.5 0Z" fill="#F03C2E"/>
<mask id="mask0_304_14481" style="mask-type:luminance" maskUnits="userSpaceOnUse" x="10" y="10" width="76" height="76">
<path d="M85.5 10.5H10.5V85.5H85.5V10.5Z" fill="white"/>
</mask>
<g mask="url(#mask0_304_14481)">
<path d="M84.0844 44.6602L51.3398 11.9156C50.8917 11.467 50.3592 11.1111 49.7734 10.8684C49.1873 10.6256 48.5592 10.5006 47.925 10.5006C47.2909 10.5006 46.6628 10.6256 46.0767 10.8684C45.4909 11.1111 44.9584 11.467 44.5103 11.9156L37.7134 18.7125L46.3384 27.3375C48.3447 26.6343 50.6415 27.1148 52.2398 28.7132C53.0007 29.4755 53.532 30.4364 53.7728 31.4862C54.0135 32.5359 53.9543 33.6323 53.6014 34.65L61.9148 42.9633C63.9259 42.2696 66.246 42.717 67.8514 44.3272C68.3854 44.8612 68.8088 45.495 69.0975 46.1925C69.3863 46.89 69.5348 47.6373 69.5348 48.3922C69.5344 49.1471 69.3859 49.8945 69.0968 50.592C68.8077 51.2891 68.3843 51.9228 67.8503 52.4565C67.3167 52.9905 66.6829 53.4135 65.9854 53.7022C65.2879 53.9913 64.5405 54.1398 63.7857 54.1395C63.0308 54.1395 62.283 53.9906 61.5859 53.7018C60.8884 53.4127 60.2547 52.9893 59.721 52.4553C58.0335 50.7678 57.6165 48.2835 58.4697 46.2045L50.7165 38.4513V58.854C51.2794 59.1322 51.7935 59.4997 52.2398 59.9415C52.7734 60.4751 53.1968 61.1085 53.4859 61.806C53.7747 62.5031 53.9232 63.2505 53.9232 64.0054C53.9232 64.7602 53.7747 65.5076 53.4859 66.2047C53.1968 66.9022 52.7734 67.536 52.2398 68.0696C51.7062 68.6032 51.0724 69.0266 50.3753 69.3154C49.6778 69.6041 48.9304 69.753 48.1759 69.753C47.421 69.753 46.6737 69.6041 45.9765 69.3154C45.279 69.0266 44.6453 68.6032 44.1117 68.0696C43.5773 67.536 43.1535 66.9026 42.8644 66.2055C42.5749 65.508 42.426 64.7602 42.426 64.0054C42.426 63.2505 42.5749 62.5031 42.8644 61.8056C43.1535 61.1081 43.5773 60.4747 44.1117 59.9415C44.667 59.3883 45.2835 58.9687 45.9938 58.6875V38.0951C45.3094 37.8138 44.667 37.3992 44.1117 36.8414C43.3047 36.0353 42.756 35.0072 42.5355 33.8881C42.3154 32.769 42.4332 31.6096 42.8742 30.5578L34.3664 22.0547L11.9133 44.4843C11.4644 44.9328 11.1083 45.4653 10.8653 46.0515C10.6223 46.6376 10.4972 47.2657 10.4972 47.9002C10.4972 48.5347 10.6223 49.1632 10.8653 49.7493C11.1083 50.3355 11.4644 50.868 11.9133 51.3165L44.6603 84.0585C45.1084 84.507 45.6409 84.8629 46.2267 85.1059C46.8128 85.3485 47.4409 85.4734 48.075 85.4734C48.7092 85.4734 49.3373 85.3485 49.9234 85.1059C50.5092 84.8629 51.0417 84.507 51.4898 84.0585L84.0844 51.5156C84.5333 51.0671 84.8895 50.5346 85.1325 49.9485C85.3755 49.3623 85.5004 48.7342 85.5004 48.0997C85.5004 47.4652 85.3755 46.8367 85.1325 46.2506C84.8895 45.6645 84.5333 45.132 84.0844 44.6835" fill="white"/>
</g>
</g>
<defs>
<clipPath id="clip0_304_14481">
<rect width="96" height="96" fill="white"/>
</clipPath>
</defs>
</svg>
