<svg width="96" height="96" viewBox="0 0 96 96" fill="none" xmlns="http://www.w3.org/2000/svg">
<g clip-path="url(#clip0_304_14488)">
<path d="M73.5 0H22.5C10.0736 0 0 10.0736 0 22.5V73.5C0 85.9264 10.0736 96 22.5 96H73.5C85.9264 96 96 85.9264 96 73.5V22.5C96 10.0736 85.9264 0 73.5 0Z" fill="#242938"/>
<path d="M17.9483 66.072L20.7016 67.6616L51.3739 14.5374L48.6206 12.9478L17.9483 66.072Z" fill="#E535AB"/>
<path d="M78.6622 61.8281H17.3178V65.0074H78.6622V61.8281Z" fill="#E535AB"/>
<path d="M18.5316 63.6138L49.2154 81.3296L50.805 78.5763L20.1212 60.8606L18.5316 63.6138Z" fill="#E535AB"/>
<path d="M45.1868 17.442L75.8704 35.1578L77.46 32.4046L46.7764 14.6888L45.1868 17.442Z" fill="#E535AB"/>
<path d="M18.5402 32.3924L20.1298 35.1456L50.8136 17.4298L49.224 14.6766L18.5402 32.3924Z" fill="#E535AB"/>
<path d="M44.6325 14.5378L75.3045 67.662L78.0578 66.0724L47.3858 12.9482L44.6325 14.5378Z" fill="#E535AB"/>
<path d="M22.9294 30.2841H19.7501V65.7157H22.9294V30.2841Z" fill="#E535AB"/>
<path d="M76.2491 30.2841H73.0699V65.7157H76.2491V30.2841Z" fill="#E535AB"/>
<path d="M47.2856 77.5789L48.6743 79.9841L75.3608 64.5761L73.9721 62.1713L47.2856 77.5789Z" fill="#E535AB"/>
<path d="M80.4626 66.75C78.624 69.9484 74.5253 71.04 71.3269 69.2014C68.1285 67.3628 67.0369 63.2644 68.8755 60.066C70.7141 56.8673 74.8129 55.7756 78.0113 57.6143C81.2287 59.472 82.3204 63.5516 80.4626 66.75Z" fill="#E535AB"/>
<path d="M27.1046 35.9341C25.266 39.1323 21.1674 40.2243 17.969 38.3857C14.7706 36.547 13.6789 32.4484 15.5175 29.25C17.3561 26.0516 21.4547 24.9599 24.6531 26.7985C27.8515 28.6563 28.9432 32.7357 27.1046 35.9341Z" fill="#E535AB"/>
<path d="M15.5366 66.75C13.698 63.5516 14.7897 59.472 17.9881 57.6143C21.1865 55.7756 25.2659 56.8673 27.1237 60.066C28.9623 63.2644 27.8706 67.3436 24.6722 69.2014C21.4546 71.04 17.3752 69.9484 15.5366 66.75Z" fill="#E535AB"/>
<path d="M68.8946 35.9341C67.056 32.7357 68.1476 28.6563 71.346 26.7985C74.5447 24.9599 78.624 26.0516 80.4817 29.25C82.3204 32.4484 81.2287 36.5278 78.0304 38.3857C74.832 40.2243 70.7332 39.1323 68.8946 35.9341Z" fill="#E535AB"/>
<path d="M47.9996 85.5C44.3032 85.5 41.3156 82.5123 41.3156 78.816C41.3156 75.1196 44.3032 72.1316 47.9996 72.1316C51.696 72.1316 54.6836 75.1196 54.6836 78.816C54.6836 82.4932 51.696 85.5 47.9996 85.5Z" fill="#E535AB"/>
<path d="M47.9996 23.8682C44.3032 23.8682 41.3156 20.8805 41.3156 17.1841C41.3156 13.4877 44.3032 10.5 47.9996 10.5C51.696 10.5 54.6836 13.4877 54.6836 17.1841C54.6836 20.8805 51.696 23.8682 47.9996 23.8682Z" fill="#E535AB"/>
</g>
<defs>
<clipPath id="clip0_304_14488">
<rect width="96" height="96" fill="white"/>
</clipPath>
</defs>
</svg>
