<svg width="96" height="96" viewBox="0 0 96 96" fill="none" xmlns="http://www.w3.org/2000/svg">
<g clip-path="url(#clip0_304_14505)">
<path d="M73.5 0H22.5C10.0736 0 0 10.0736 0 22.5V73.5C0 85.9264 10.0736 96 22.5 96H73.5C85.9264 96 96 85.9264 96 73.5V22.5C96 10.0736 85.9264 0 73.5 0Z" fill="#E14E1D"/>
<path d="M18 14.25L21.2287 50.4724H62.745L61.3519 66.0086L47.9846 69.6229L34.6425 66.0139L33.7504 56.0381H21.7271L23.4464 75.2685L47.9816 82.083L72.5479 75.2685L75.8415 38.4956H32.184L31.0879 26.2293H76.8904H76.9271L78 14.25H18Z" fill="white"/>
<path d="M48 14.25H18L21.2287 50.4724H48V38.4956H32.184L31.0879 26.2293H48V14.25Z" fill="#EBEBEB"/>
<path d="M48 69.6176L47.9846 69.6229L34.6425 66.0139L33.7504 56.0381H21.7271L23.4464 75.2685L47.9816 82.083L48 82.0777V69.6176Z" fill="#EBEBEB"/>
</g>
<defs>
<clipPath id="clip0_304_14505">
<rect width="96" height="96" fill="white"/>
</clipPath>
</defs>
</svg>
