<svg width="96" height="96" viewBox="0 0 96 96" fill="none" xmlns="http://www.w3.org/2000/svg">
<g clip-path="url(#clip0_304_14510)">
<path d="M73.5 0H22.5C10.0736 0 0 10.0736 0 22.5V73.5C0 85.9264 10.0736 96 22.5 96H73.5C85.9264 96 96 85.9264 96 73.5V22.5C96 10.0736 85.9264 0 73.5 0Z" fill="#F0DB4F"/>
<path d="M25.2418 80.2245L32.5885 75.7785C34.0057 78.2914 35.295 80.4176 38.3876 80.4176C41.352 80.4176 43.221 79.2581 43.221 74.7476V44.0734H52.2427V74.8751C52.2427 84.219 46.7655 88.4722 38.7742 88.4722C31.5574 88.4722 27.3682 84.7346 25.2417 80.2237" fill="#323330"/>
<path d="M57.1428 79.2577L64.4883 75.0049C66.4222 78.1627 68.9355 80.4825 73.3815 80.4825C77.1198 80.4825 79.5033 78.6135 79.5033 76.0357C79.5033 72.9427 77.0546 71.847 72.9303 70.0432L70.6754 69.0761C64.1666 66.3056 59.8488 62.8256 59.8488 55.4794C59.8488 48.7129 65.0043 43.5574 73.0597 43.5574C78.7949 43.5574 82.9192 45.5554 85.8832 50.775L78.8591 55.2859C77.3122 52.515 75.6375 51.4196 73.0597 51.4196C70.4175 51.4196 68.7419 53.0951 68.7419 55.2859C68.7419 57.9922 70.4174 59.088 74.2837 60.7639L76.5389 61.7302C84.2073 65.0171 88.5251 68.3674 88.5251 75.9067C88.5251 84.027 82.1456 88.473 73.5749 88.473C65.1978 88.473 59.7847 84.4777 57.1428 79.2577Z" fill="#323330"/>
</g>
<defs>
<clipPath id="clip0_304_14510">
<rect width="96" height="96" fill="white"/>
</clipPath>
</defs>
</svg>
