<svg width="107" height="28" viewBox="0 0 107 28" fill="none" xmlns="http://www.w3.org/2000/svg">
<rect width="107" height="28" rx="3" fill="#5A5AED"/>
<g clip-path="url(#clip0_304_16391)">
<path fill-rule="evenodd" clip-rule="evenodd" d="M12.5366 6C11.1357 6 10 7.13567 10 8.53659V19.4634C10 20.8643 11.1357 22 12.5366 22H23.4634C24.8643 22 26 20.8643 26 19.4634V8.53659C26 7.13567 24.8643 6 23.4634 6H12.5366ZM12.7171 19.4634H14.9829V12.1683H12.7171V19.4634ZM12.5366 9.84878C12.5366 10.5732 13.1244 11.1732 13.8488 11.1732C14.5732 11.1732 15.161 10.5732 15.161 9.84878C15.161 9.50076 15.0227 9.167 14.7766 8.92093C14.5306 8.67483 14.1968 8.53659 13.8488 8.53659C13.5008 8.53659 13.167 8.67483 12.9209 8.92093C12.6748 9.167 12.5366 9.50076 12.5366 9.84878ZM21.2 19.4634H23.461H23.4634V15.4561C23.4634 13.4951 23.0415 11.9854 20.7488 11.9854C19.6463 11.9854 18.9073 12.5902 18.6049 13.1634H18.5732V12.1683H16.4V19.4634H18.6634V15.8512C18.6634 14.9 18.8439 13.9805 20.022 13.9805C21.1829 13.9805 21.2 15.0659 21.2 15.9122V19.4634Z" fill="#FFFBF7"/>
</g>
<path d="M32.9325 18.5V9.04545H34.6452V17.0643H38.8093V18.5H32.9325ZM42.6585 9.04545V18.5H40.9458V9.04545H42.6585ZM52.9327 9.04545V18.5H51.4093L46.9544 12.06H46.8759V18.5H45.1632V9.04545H46.6959L51.1461 15.4901H51.2292V9.04545H52.9327ZM55.4489 18.5V9.04545H57.1616V13.3896H57.2771L60.9656 9.04545H63.0569L59.4006 13.288L63.0892 18.5H61.0303L58.2096 14.4467L57.1616 15.6839V18.5H55.4489ZM64.8968 18.5V9.04545H71.0459V10.4812H66.6095V13.0479H70.7274V14.4837H66.6095V17.0643H71.0829V18.5H64.8968ZM76.6471 18.5H73.4433V9.04545H76.7117C77.6504 9.04545 78.4568 9.23473 79.1308 9.61328C79.8079 9.98875 80.328 10.5289 80.6911 11.2337C81.0543 11.9384 81.2359 12.7817 81.2359 13.7635C81.2359 14.7483 81.0528 15.5947 80.6865 16.3026C80.3234 17.0104 79.7986 17.5536 79.1123 17.9322C78.4291 18.3107 77.6073 18.5 76.6471 18.5ZM75.156 17.0181H76.564C77.2226 17.0181 77.772 16.8981 78.2121 16.658C78.6522 16.4149 78.983 16.0533 79.2046 15.5732C79.4262 15.09 79.537 14.4867 79.537 13.7635C79.537 13.0402 79.4262 12.4401 79.2046 11.9631C78.983 11.483 78.6553 11.1244 78.2213 10.8874C77.7905 10.6474 77.2549 10.5273 76.6148 10.5273H75.156V17.0181ZM85.2259 9.04545V18.5H83.5132V9.04545H85.2259ZM95.5001 9.04545V18.5H93.9767L89.5218 12.06H89.4433V18.5H87.7306V9.04545H89.2632L93.7135 15.4901H93.7966V9.04545H95.5001Z" fill="#FFFBF7"/>
<defs>
<clipPath id="clip0_304_16391">
<rect width="16" height="16" fill="white" transform="translate(10 6)"/>
</clipPath>
</defs>
</svg>
