<svg width="96" height="96" viewBox="0 0 96 96" fill="none" xmlns="http://www.w3.org/2000/svg">
<g clip-path="url(#clip0_304_14519)">
<path d="M73.5 0H22.5C10.0736 0 0 10.0736 0 22.5V73.5C0 85.9264 10.0736 96 22.5 96H73.5C85.9264 96 96 85.9264 96 73.5V22.5C96 10.0736 85.9264 0 73.5 0Z" fill="#242938"/>
<path d="M45.5441 10.5202C45.3829 10.5348 44.8695 10.5862 44.4075 10.6228C33.7551 11.5832 23.7771 17.331 17.4575 26.1653C13.9384 31.0774 11.6877 36.6492 10.8372 42.5509C10.5367 44.6111 10.5 45.2198 10.5 48.0128C10.5 50.8061 10.5367 51.4148 10.8372 53.4746C12.8754 67.5581 22.8974 79.3913 36.4897 83.7754C38.9239 84.5599 41.4896 85.095 44.4075 85.4175C45.5441 85.542 50.4559 85.542 51.5925 85.4175C56.6291 84.8603 60.8959 83.6141 65.1041 81.4658C65.7491 81.1361 65.874 81.048 65.7859 80.9749C65.7274 80.9306 62.9779 77.2429 59.679 72.7856L53.682 64.6845L46.167 53.5628C42.0322 47.4484 38.6306 42.4481 38.601 42.4481C38.5717 42.441 38.5425 47.3824 38.5279 53.4161C38.5057 63.9806 38.4986 64.4059 38.3666 64.6549C38.1761 65.0141 38.0295 65.1608 37.7212 65.3224C37.4868 65.4394 37.2815 65.4615 36.1745 65.4615H34.9062L34.5689 65.2489C34.349 65.1098 34.1877 64.9264 34.0777 64.7138L33.9237 64.3838L33.9384 49.6845L33.9604 34.9777L34.1877 34.6917C34.305 34.5378 34.5543 34.3398 34.7302 34.2445C35.0308 34.0979 35.1481 34.0832 36.4164 34.0832C37.9121 34.0832 38.1611 34.1419 38.55 34.5671C38.6599 34.6844 42.7286 40.8135 47.5969 48.1961C52.4648 55.5788 59.1217 65.6595 62.3914 70.608L68.3299 79.6039L68.6306 79.4059C71.2916 77.6756 74.1071 75.2123 76.3357 72.6461C81.0791 67.1989 84.1365 60.5569 85.1629 53.4746C85.4632 51.4148 85.5 50.8061 85.5 48.0128C85.5 45.2198 85.4632 44.6111 85.1629 42.5509C83.1247 28.4674 73.1025 16.6345 59.5103 12.2504C57.1129 11.4733 54.5618 10.9381 51.7024 10.6155C50.9985 10.5422 46.1524 10.4615 45.5441 10.5202ZM60.8959 33.2035C61.2476 33.3794 61.5337 33.7166 61.6365 34.0685C61.695 34.2592 61.7096 38.3355 61.695 47.5215L61.6729 60.7035L59.349 57.1403L57.0176 53.5774V43.9954C57.0176 37.8004 57.0469 34.3178 57.0908 34.1492C57.2081 33.7387 57.4646 33.4161 57.8167 33.2254C58.1171 33.0715 58.2274 33.0568 59.3782 33.0568C60.4635 33.0568 60.654 33.0715 60.8959 33.2035Z" fill="white"/>
</g>
<defs>
<clipPath id="clip0_304_14519">
<rect width="96" height="96" fill="white"/>
</clipPath>
</defs>
</svg>
