<svg width="96" height="96" viewBox="0 0 96 96" fill="none" xmlns="http://www.w3.org/2000/svg">
<g clip-path="url(#clip0_304_14522)">
<path d="M73.5 0H22.5C10.0736 0 0 10.0736 0 22.5V73.5C0 85.9264 10.0736 96 22.5 96H73.5C85.9264 96 96 85.9264 96 73.5V22.5C96 10.0736 85.9264 0 73.5 0Z" fill="#242938"/>
<path d="M44.9543 11.6686C46.7989 10.6128 49.2011 10.6081 51.0439 11.6686C60.3146 16.9071 69.5884 22.1374 78.8576 27.379C80.6014 28.3611 81.7673 30.3014 81.7496 32.3103V63.8272C81.7628 65.9194 80.4814 67.9061 78.642 68.8657C69.4016 74.0756 60.1657 79.2915 50.9269 84.5014C49.0448 85.5776 46.5941 85.4947 44.7701 84.33C42 82.7242 39.225 81.126 36.4545 79.5217C35.8883 79.1842 35.2502 78.9157 34.8504 78.3667C35.2037 77.8905 35.8357 77.8312 36.3491 77.6231C37.5053 77.2552 38.5676 76.665 39.6296 76.0924C39.8985 75.9086 40.2263 75.9791 40.4839 76.1434C42.8528 77.5016 45.201 78.8996 47.5778 80.2447C48.0848 80.5376 48.5981 80.1487 49.0316 79.9072C58.0991 74.7821 67.1779 69.6769 76.2443 64.5502C76.5803 64.3886 76.7659 64.032 76.7385 63.6641C76.7449 53.2672 76.74 42.8689 76.7419 32.4719C76.7801 32.0544 76.5386 31.6706 76.161 31.4996C66.9529 26.3138 57.7489 21.1202 48.5423 15.9331C48.2156 15.7085 47.7848 15.7079 47.4578 15.9314C38.2508 21.1202 29.0489 26.3187 19.8422 31.5041C19.466 31.6753 19.2135 32.0529 19.2583 32.4719C19.2599 42.8689 19.2583 53.2672 19.2583 63.6656C19.2256 64.0335 19.4254 64.3826 19.759 64.5409C22.2158 65.934 24.6759 67.3174 27.1343 68.706C28.5194 69.4511 30.2199 69.8944 31.7458 69.3232C33.0924 68.8402 34.0362 67.4659 34.0106 66.0364C34.0233 55.7002 34.0042 45.3626 34.0201 35.0279C33.9866 34.569 34.4217 34.1899 34.8679 34.2332C36.0485 34.2251 37.2304 34.2173 38.4109 34.2364C38.9036 34.2251 39.2426 34.7193 39.1819 35.1815C39.177 45.5831 39.1946 55.9849 39.174 66.3862C39.177 69.1586 38.0381 72.1751 35.474 73.5315C32.3151 75.1676 28.4107 74.8207 25.29 73.2517C22.5883 71.9032 20.0101 70.3117 17.3564 68.8672C15.5123 67.9129 14.2373 65.9182 14.2502 63.8276V32.3103C14.2309 30.2598 15.4434 28.2843 17.2412 27.3167C26.48 22.1028 35.7173 16.8848 44.9543 11.6686Z" fill="#81CD39"/>
<path d="M53.0145 33.5006C57.0439 33.2412 61.3575 33.347 64.9834 35.3319C67.791 36.8533 69.3473 40.0459 69.3968 43.1647C69.3184 43.5851 68.8785 43.8172 68.4769 43.7884C67.308 43.7869 66.1384 43.8045 64.9695 43.7805C64.4734 43.7996 64.1854 43.3425 64.1231 42.9041C63.7871 41.4116 62.973 39.9337 61.5686 39.2137C59.4124 38.1345 56.9126 38.1889 54.5614 38.2114C52.845 38.3021 50.9993 38.451 49.545 39.4601C48.4286 40.2247 48.0896 41.7682 48.4879 43.0114C48.8636 43.9039 49.8938 44.1919 50.7371 44.4574C55.593 45.7275 60.7388 45.6007 65.502 47.2721C67.4741 47.9535 69.4031 49.2784 70.0781 51.3431C70.9613 54.1106 70.5743 57.4181 68.6051 59.6396C67.0084 61.4677 64.683 62.463 62.3636 63.0034C59.2781 63.6915 56.076 63.7091 52.9425 63.4035C49.9961 63.0675 46.9298 62.2935 44.6554 60.2861C42.7103 58.5971 41.7604 55.9654 41.8545 53.4259C41.877 52.9969 42.3041 52.6976 42.7151 52.7329C43.8923 52.7235 45.0698 52.7201 46.2469 52.7347C46.7175 52.701 47.0659 53.1075 47.0903 53.5507C47.307 54.9724 47.8414 56.4649 49.0815 57.3075C51.474 58.8514 54.4766 58.7456 57.2164 58.7887C59.4863 58.6882 62.0344 58.6579 63.8865 57.1575C64.8638 56.3017 65.1533 54.87 64.8893 53.6385C64.6031 52.5986 63.5153 52.1141 62.5811 51.7972C57.7875 50.2811 52.584 50.8312 47.8369 49.1164C45.9094 48.4354 44.0456 47.1476 43.3054 45.1676C42.2723 42.3652 42.7455 38.8987 44.9209 36.7523C47.0419 34.617 50.1034 33.7949 53.0145 33.5006Z" fill="#81CD39"/>
</g>
<defs>
<clipPath id="clip0_304_14522">
<rect width="96" height="96" fill="white"/>
</clipPath>
</defs>
</svg>
