<svg width="96" height="96" viewBox="0 0 96 96" fill="none" xmlns="http://www.w3.org/2000/svg">
<g clip-path="url(#clip0_304_14526)">
<mask id="mask0_304_14526" style="mask-type:luminance" maskUnits="userSpaceOnUse" x="0" y="0" width="96" height="96">
<path d="M96 0H0V96H96V0Z" fill="white"/>
</mask>
<g mask="url(#mask0_304_14526)">
<path d="M73.5 0H22.5C10.0736 0 0 10.0736 0 22.5V73.5C0 85.9264 10.0736 96 22.5 96H73.5C85.9264 96 96 85.9264 96 73.5V22.5C96 10.0736 85.9264 0 73.5 0Z" fill="#242938"/>
<path d="M35.625 15.375H15V36H35.625V15.375Z" fill="#F9AD00"/>
<path d="M58.125 15.375H37.5V36H58.125V15.375Z" fill="#F9AD00"/>
<path d="M80.625 15.375H60V36H80.625V15.375Z" fill="#F9AD00"/>
<path d="M80.625 37.875H60V58.5H80.625V37.875Z" fill="#F9AD00"/>
<path d="M80.625 60.375H60V81H80.625V60.375Z" fill="#4E4E4E"/>
<path d="M58.125 60.375H37.5V81H58.125V60.375Z" fill="#4E4E4E"/>
<path d="M35.625 60.375H15V81H35.625V60.375Z" fill="#4E4E4E"/>
<path d="M35.625 37.875H15V58.5H35.625V37.875Z" fill="#242938"/>
<path d="M58.125 37.875H37.5V58.5H58.125V37.875Z" fill="#4E4E4E"/>
</g>
</g>
<defs>
<clipPath id="clip0_304_14526">
<rect width="96" height="96" fill="white"/>
</clipPath>
</defs>
</svg>
