<svg width="122" height="28" viewBox="0 0 122 28" fill="none" xmlns="http://www.w3.org/2000/svg">
<rect width="122" height="28" rx="3" fill="#5A5AED"/>
<g clip-path="url(#clip0_304_16400)">
<path fill-rule="evenodd" clip-rule="evenodd" d="M12.5366 6C11.1357 6 10 7.13567 10 8.53659V19.4634C10 20.8643 11.1357 22 12.5366 22H23.4634C24.8643 22 26 20.8643 26 19.4634V8.53659C26 7.13567 24.8643 6 23.4634 6H12.5366ZM22.6973 10.5219C23.7188 11.5434 23.7188 13.1978 22.6973 14.2193L20.6669 16.2497C19.6453 17.2713 17.991 17.2713 16.9694 16.2497C16.0654 15.3457 15.9479 13.921 16.6928 12.8832L16.7127 12.8542C16.8971 12.5957 17.2605 12.536 17.5191 12.7205C17.7776 12.9049 17.8391 13.2665 17.6529 13.5268L17.633 13.5558C17.2189 14.1343 17.284 14.9281 17.7885 15.4325C18.358 16.002 19.2801 16.002 19.8496 15.4325L21.8782 13.4003C22.4478 12.8308 22.4478 11.9087 21.8782 11.3391C21.3756 10.8347 20.5819 10.7696 20.0015 11.1836L19.9726 11.2035C19.714 11.3898 19.3524 11.3283 19.1662 11.0697C18.98 10.8112 19.0396 10.4496 19.3 10.2633L19.3289 10.2435C20.3685 9.50037 21.7932 9.61788 22.6973 10.5219ZM13.3027 17.4937C12.2812 16.4721 12.2812 14.8178 13.3027 13.7962L15.3331 11.7658C16.3547 10.7443 18.009 10.7443 19.0306 11.7658C19.9346 12.6698 20.0521 14.0946 19.3072 15.1342L19.2873 15.1631C19.1029 15.4217 18.7395 15.4813 18.4809 15.2969C18.2224 15.1125 18.1609 14.7509 18.3471 14.4905L18.367 14.4616C18.7811 13.8812 18.716 13.0875 18.2115 12.583C17.642 12.0135 16.7199 12.0135 16.1504 12.583L14.1218 14.6135C13.5522 15.183 13.5522 16.1051 14.1218 16.6764C14.6244 17.1809 15.4181 17.246 15.9985 16.8319L16.0274 16.812C16.286 16.6258 16.6476 16.6873 16.8338 16.9458C17.02 17.2044 16.9604 17.566 16.7 17.7522L16.6711 17.7721C15.6315 18.5152 14.2068 18.3977 13.3027 17.4937Z" fill="#FFFBF7"/>
</g>
<path d="M32.9325 18.5V9.04545H36.478C37.2043 9.04545 37.8137 9.18087 38.3061 9.4517C38.8016 9.72254 39.1755 10.0949 39.4279 10.5689C39.6834 11.0398 39.8111 11.5753 39.8111 12.1754C39.8111 12.7817 39.6834 13.3203 39.4279 13.7912C39.1725 14.2621 38.7955 14.6329 38.2969 14.9038C37.7983 15.1715 37.1843 15.3054 36.4549 15.3054H34.1051V13.8974H36.2241C36.6488 13.8974 36.9966 13.8235 37.2674 13.6758C37.5382 13.5281 37.7383 13.3249 37.8675 13.0664C37.9999 12.8079 38.0661 12.5109 38.0661 12.1754C38.0661 11.84 37.9999 11.5445 37.8675 11.2891C37.7383 11.0336 37.5367 10.8351 37.2628 10.6935C36.992 10.5489 36.6426 10.4766 36.2148 10.4766H34.6452V18.5H32.9325ZM50.3969 13.7727C50.3969 14.7914 50.2061 15.6639 49.8244 16.3903C49.4459 17.1135 48.9289 17.6675 48.2733 18.0522C47.6209 18.4369 46.8807 18.6293 46.0528 18.6293C45.2249 18.6293 44.4832 18.4369 43.8276 18.0522C43.1752 17.6644 42.6581 17.1089 42.2765 16.3857C41.898 15.6593 41.7087 14.7884 41.7087 13.7727C41.7087 12.754 41.898 11.883 42.2765 11.1598C42.6581 10.4335 43.1752 9.87796 43.8276 9.49325C44.4832 9.10855 45.2249 8.91619 46.0528 8.91619C46.8807 8.91619 47.6209 9.10855 48.2733 9.49325C48.9289 9.87796 49.4459 10.4335 49.8244 11.1598C50.2061 11.883 50.3969 12.754 50.3969 13.7727ZM48.6749 13.7727C48.6749 13.0556 48.5626 12.4509 48.3379 11.9585C48.1164 11.4629 47.8086 11.089 47.4146 10.8366C47.0207 10.5812 46.5668 10.4535 46.0528 10.4535C45.5388 10.4535 45.0849 10.5812 44.6909 10.8366C44.297 11.089 43.9877 11.4629 43.763 11.9585C43.5414 12.4509 43.4306 13.0556 43.4306 13.7727C43.4306 14.4898 43.5414 15.0961 43.763 15.5916C43.9877 16.084 44.297 16.458 44.6909 16.7134C45.0849 16.9658 45.5388 17.092 46.0528 17.092C46.5668 17.092 47.0207 16.9658 47.4146 16.7134C47.8086 16.458 48.1164 16.084 48.3379 15.5916C48.5626 15.0961 48.6749 14.4898 48.6749 13.7727ZM52.6661 18.5V9.04545H56.2116C56.9379 9.04545 57.5473 9.17164 58.0397 9.42401C58.5352 9.67637 58.9091 10.0303 59.1615 10.4858C59.417 10.9382 59.5447 11.466 59.5447 12.0692C59.5447 12.6755 59.4154 13.2018 59.1569 13.6481C58.9014 14.0913 58.5244 14.4344 58.0259 14.6776C57.5273 14.9176 56.9148 15.0376 56.1885 15.0376H53.6633V13.6158H55.9577C56.3824 13.6158 56.7302 13.5573 57.001 13.4403C57.2718 13.3203 57.4719 13.1464 57.6011 12.9187C57.7335 12.6879 57.7996 12.4047 57.7996 12.0692C57.7996 11.7338 57.7335 11.4476 57.6011 11.2106C57.4688 10.9705 57.2672 10.7889 56.9964 10.6658C56.7255 10.5397 56.3762 10.4766 55.9484 10.4766H54.3788V18.5H52.6661ZM57.5504 14.2159L59.8909 18.5H57.9797L55.6807 14.2159H57.5504ZM61.3557 10.4812V9.04545H68.899V10.4812H65.9768V18.5H64.2779V10.4812H61.3557ZM71.0032 18.5V9.04545H77.06V10.4812H72.7159V13.0479H76.6446V14.4837H72.7159V18.5H71.0032ZM87.7186 13.7727C87.7186 14.7914 87.5278 15.6639 87.1461 16.3903C86.7676 17.1135 86.2505 17.6675 85.595 18.0522C84.9425 18.4369 84.2024 18.6293 83.3745 18.6293C82.5466 18.6293 81.8049 18.4369 81.1493 18.0522C80.4969 17.6644 79.9798 17.1089 79.5982 16.3857C79.2196 15.6593 79.0304 14.7884 79.0304 13.7727C79.0304 12.754 79.2196 11.883 79.5982 11.1598C79.9798 10.4335 80.4969 9.87796 81.1493 9.49325C81.8049 9.10855 82.5466 8.91619 83.3745 8.91619C84.2024 8.91619 84.9425 9.10855 85.595 9.49325C86.2505 9.87796 86.7676 10.4335 87.1461 11.1598C87.5278 11.883 87.7186 12.754 87.7186 13.7727ZM85.9966 13.7727C85.9966 13.0556 85.8843 12.4509 85.6596 11.9585C85.438 11.4629 85.1303 11.089 84.7363 10.8366C84.3424 10.5812 83.8884 10.4535 83.3745 10.4535C82.8605 10.4535 82.4065 10.5812 82.0126 10.8366C81.6187 11.089 81.3094 11.4629 81.0847 11.9585C80.8631 12.4509 80.7523 13.0556 80.7523 13.7727C80.7523 14.4898 80.8631 15.0961 81.0847 15.5916C81.3094 16.084 81.6187 16.458 82.0126 16.7134C82.4065 16.9658 82.8605 17.092 83.3745 17.092C83.8884 17.092 84.3424 16.9658 84.7363 16.7134C85.1303 16.458 85.438 16.084 85.6596 15.5916C85.8843 15.0961 85.9966 14.4898 85.9966 13.7727ZM89.9878 18.5V9.04545H91.7005V17.0643H95.8646V18.5H89.9878ZM99.7138 9.04545V18.5H98.0011V9.04545H99.7138ZM110.667 13.7727C110.667 14.7914 110.476 15.6639 110.094 16.3903C109.716 17.1135 109.199 17.6675 108.543 18.0522C107.891 18.4369 107.15 18.6293 106.323 18.6293C105.495 18.6293 104.753 18.4369 104.097 18.0522C103.445 17.6644 102.928 17.1089 102.546 16.3857C102.168 15.6593 101.978 14.7884 101.978 13.7727C101.978 12.754 102.168 11.883 102.546 11.1598C102.928 10.4335 103.445 9.87796 104.097 9.49325C104.753 9.10855 105.495 8.91619 106.323 8.91619C107.15 8.91619 107.891 9.10855 108.543 9.49325C109.199 9.87796 109.716 10.4335 110.094 11.1598C110.476 11.883 110.667 12.754 110.667 13.7727ZM108.945 13.7727C108.945 13.0556 108.832 12.4509 108.608 11.9585C108.386 11.4629 108.078 11.089 107.684 10.8366C107.29 10.5812 106.836 10.4535 106.323 10.4535C105.809 10.4535 105.355 10.5812 104.961 10.8366C104.567 11.089 104.257 11.4629 104.033 11.9585C103.811 12.4509 103.7 13.0556 103.7 13.7727C103.7 14.4898 103.811 15.0961 104.033 15.5916C104.257 16.084 104.567 16.458 104.961 16.7134C105.355 16.9658 105.809 17.092 106.323 17.092C106.836 17.092 107.29 16.9658 107.684 16.7134C108.078 16.458 108.386 16.084 108.608 15.5916C108.832 15.0961 108.945 14.4898 108.945 13.7727Z" fill="#FFFBF7"/>
<defs>
<clipPath id="clip0_304_16400">
<rect width="16" height="16" fill="white" transform="translate(10 6)"/>
</clipPath>
</defs>
</svg>
