<svg width="96" height="96" viewBox="0 0 96 96" fill="none" xmlns="http://www.w3.org/2000/svg">
<g clip-path="url(#clip0_304_14541)">
<path d="M73.5 0H22.5C10.0736 0 0 10.0736 0 22.5V73.5C0 85.9264 10.0736 96 22.5 96H73.5C85.9264 96 96 85.9264 96 73.5V22.5C96 10.0736 85.9264 0 73.5 0Z" fill="#242938"/>
<path d="M76.305 55.758C68.685 57.3293 68.1315 54.7481 68.1315 54.7481C76.1812 42.8036 79.5483 27.6425 76.6425 23.9327C68.7221 13.8077 55.0083 18.5986 54.7788 18.7225L54.705 18.7357C53.0302 18.3996 51.3273 18.2222 49.6188 18.2057C46.17 18.153 43.5543 19.1101 41.5665 20.6157C41.5665 20.6157 17.1029 10.5381 18.2419 33.2904C18.4845 38.1315 25.1765 69.9409 33.1658 60.3169C36.1084 56.7784 38.9295 53.8065 38.9295 53.8065C40.3271 54.7373 42.0067 55.212 43.7655 55.0406L43.9023 54.9248C43.8622 55.3804 43.881 55.8394 43.9578 56.2905C41.9013 58.5896 42.5077 58.9931 38.3943 59.8395C34.2336 60.6964 36.6805 62.223 38.2732 62.6239C40.2086 63.1091 44.6857 63.7946 47.7127 59.5601L47.5912 60.0424C48.3982 60.6885 48.9622 64.2428 48.8673 67.4648C48.7725 70.6871 48.7091 72.8966 49.3421 74.6261C49.9747 76.356 50.6077 80.2425 56.013 79.1085C60.5298 78.141 62.8683 75.6281 63.198 71.4465C63.4301 68.472 63.9521 68.9096 63.9892 66.252L64.4111 64.9916C64.8933 60.9574 64.4898 59.6576 67.2716 60.264L67.9492 60.3248C69.9982 60.417 72.6798 59.9951 74.2511 59.2646C77.6392 57.6934 79.6485 55.0669 76.3076 55.758H76.305Z" fill="#336791"/>
<path d="M54.7763 18.2235C53.9326 18.4872 68.3925 12.9369 76.6137 23.439C79.5143 27.1488 76.1524 42.3101 68.1023 54.2542M48.0368 57.669C47.8261 65.1731 48.0897 72.7297 48.8228 74.544C49.5556 76.3579 51.1298 79.9492 56.5377 78.7942C61.0546 77.8267 62.6997 75.9517 63.4118 71.8147L65.0806 58.5866L48.0368 57.669ZM41.5561 20.0508C41.5561 20.0508 17.0766 10.0418 18.2157 32.794C18.4583 37.635 25.1503 69.4443 33.1395 59.8203C36.0557 56.3055 38.6926 53.5556 38.6926 53.5556L41.5561 20.0508Z" stroke="white" stroke-width="1.5" stroke-linecap="round" stroke-linejoin="round"/>
<path d="M68.1049 54.249C68.1049 54.249 68.6325 56.8331 76.2787 55.2563C79.6196 54.5655 77.6077 57.1916 74.2222 58.7632C71.4431 60.0551 65.2099 60.3848 65.1071 58.605C64.8435 54.0038 68.3872 55.4014 68.1315 54.249C67.8994 53.2103 66.312 52.1925 65.268 49.6507C64.353 47.4356 52.7171 30.4289 68.4952 32.9523C69.0754 32.8336 64.3819 17.923 49.6162 17.7068C34.8507 17.4906 35.3174 35.8606 35.3174 35.8606" stroke="white" stroke-width="1.5" stroke-linecap="round" stroke-linejoin="bevel"/>
<path d="M43.905 55.8259C41.8485 58.125 42.4549 58.5285 38.3419 59.3749C34.1809 60.2317 36.6278 61.7584 38.2204 62.1592C40.1557 62.6445 44.6329 63.33 47.6599 59.0925C48.5827 57.8006 47.6546 55.7441 46.389 55.2221C45.7774 54.969 44.9599 54.6525 43.9106 55.8285L43.905 55.8259Z" stroke="white" stroke-width="1.5" stroke-linejoin="round"/>
<path d="M43.7707 55.7861C43.5596 54.4335 44.2136 52.8278 44.9122 50.9453C45.9618 48.1241 48.3825 45.3026 46.4471 36.3457C45.0048 29.6748 35.32 34.9562 35.32 35.8606C35.32 36.765 35.7577 40.4486 35.1618 44.733C34.3787 50.3284 38.7213 55.0586 43.7205 54.576" stroke="white" stroke-width="1.5" stroke-linecap="round" stroke-linejoin="round"/>
<path d="M41.4664 35.7261C41.4214 36.0346 42.033 36.8599 42.8269 36.9706C43.6204 37.0813 44.298 36.438 44.343 36.1269C44.3876 35.8157 43.776 35.4782 42.9825 35.3675C42.1886 35.2567 41.5058 35.4202 41.4664 35.7261Z" fill="white" stroke="white" stroke-width="1.5"/>
<path d="M65.6291 35.0959C65.6711 35.4045 65.0621 36.2297 64.2686 36.3405C63.4748 36.4512 62.7919 35.8078 62.7525 35.4967C62.7128 35.1856 63.3195 34.8481 64.113 34.7374C64.9065 34.6266 65.5894 34.7901 65.6291 35.0959Z" fill="white" stroke="white" stroke-width="1.5"/>
<path d="M68.4664 32.9575C68.598 35.3833 67.944 37.0313 67.8596 39.6128C67.7385 43.362 69.6476 47.6546 66.7706 51.9525" stroke="white" stroke-width="1.5" stroke-linecap="round" stroke-linejoin="round"/>
</g>
<defs>
<clipPath id="clip0_304_14541">
<rect width="96" height="96" fill="white"/>
</clipPath>
</defs>
</svg>
