<svg width="256" height="256" viewBox="0 0 256 256" fill="none" xmlns="http://www.w3.org/2000/svg">
<g clip-path="url(#clip0_304_11483)">
<path d="M196 0H60C26.8629 0 0 26.8629 0 60V196C0 229.137 26.8629 256 60 256H196C229.137 256 256 229.137 256 196V60C256 26.8629 229.137 0 196 0Z" fill="#677EEB"/>
<path fill-rule="evenodd" clip-rule="evenodd" d="M52.6582 165.183C50.7411 162.159 50.7122 158.307 52.5835 155.254L123.044 40.3194C126.963 33.9268 136.426 34.4857 139.565 41.2952L203.934 180.926C206.322 186.107 203.573 192.203 198.108 193.843L97.9779 223.882C93.9492 225.09 89.6084 223.471 87.3564 219.918L52.6582 165.183ZM131.173 73.9254C131.852 70.5443 136.485 70.0567 137.853 73.2224L182.254 175.963C183.09 177.898 182.05 180.129 180.03 180.731L110.848 201.383C108.305 202.142 105.869 199.92 106.392 197.318L131.173 73.9254Z" fill="#F7FAFC"/>
</g>
<defs>
<clipPath id="clip0_304_11483">
<rect width="256" height="256" fill="white"/>
</clipPath>
</defs>
</svg>
