<svg width="96" height="96" viewBox="0 0 96 96" fill="none" xmlns="http://www.w3.org/2000/svg">
<g clip-path="url(#clip0_304_14551)">
<path d="M73.5 0H22.5C10.0736 0 0 10.0736 0 22.5V73.5C0 85.9264 10.0736 96 22.5 96H73.5C85.9264 96 96 85.9264 96 73.5V22.5C96 10.0736 85.9264 0 73.5 0Z" fill="#677EEB"/>
<path fill-rule="evenodd" clip-rule="evenodd" d="M19.7468 61.9436C19.0279 60.8096 19.0171 59.3651 19.7188 58.2202L46.1415 15.1199C47.6111 12.7226 51.1597 12.9322 52.3369 15.4858L76.4752 67.8472C77.3707 69.7901 76.3399 72.0761 74.2905 72.6911L36.7417 83.9557C35.2309 84.4087 33.6031 83.8016 32.7586 82.4692L19.7468 61.9436ZM49.1899 27.7221C49.4445 26.4542 51.1818 26.2713 51.6948 27.4585L68.3452 65.9861C68.6587 66.7117 68.2687 67.5484 67.5112 67.7741L41.568 75.5186C40.6144 75.8032 39.7008 74.97 39.897 73.9942L49.1899 27.7221Z" fill="#F7FAFC"/>
</g>
<defs>
<clipPath id="clip0_304_14551">
<rect width="96" height="96" fill="white"/>
</clipPath>
</defs>
</svg>
