<svg width="96" height="96" viewBox="0 0 96 96" fill="none" xmlns="http://www.w3.org/2000/svg">
<g clip-path="url(#clip0_304_14561)">
<path d="M73.5 0H22.5C10.0736 0 0 10.0736 0 22.5V73.5C0 85.9264 10.0736 96 22.5 96H73.5C85.9264 96 96 85.9264 96 73.5V22.5C96 10.0736 85.9264 0 73.5 0Z" fill="#D30001"/>
<path d="M85.4512 43.7936L85.5 43.842C85.5 43.842 84.9379 44.2387 84.3428 44.7349C65.5594 30.8459 54.0847 37.3935 50.4802 39.1462C34.1111 48.2801 38.8414 70.7025 38.9377 71.1499L38.9392 71.1566H12.8148C12.8148 71.1566 13.8069 61.3684 20.7513 49.7944C27.6957 38.2204 39.5344 29.457 49.1572 28.5972C67.7122 26.7386 84.4346 42.7987 85.4512 43.7936ZM39.9311 64.5431L43.5026 65.8328C43.668 67.128 43.9024 68.3542 44.148 69.4732L44.2961 70.1318L40.3279 68.7097C40.1625 67.7175 39.9975 66.2955 39.9311 64.5431ZM12.1534 53.8286L15.9564 55.2176C15.4934 56.2882 14.9038 57.6626 14.4757 58.7426L14.3029 59.1859L10.5 57.7969C10.8307 56.904 11.5251 55.2506 12.1534 53.8286ZM41.4195 52.506L43.8004 54.3908C43.5356 55.4228 43.3346 56.4544 43.197 57.486L43.1059 58.26L40.4272 56.1435C40.6916 54.9529 40.9894 53.7296 41.4195 52.506ZM47.2725 43.2799L48.7605 45.5284C48.1785 46.137 47.6389 46.7452 47.1585 47.3876L46.8094 47.8762L45.2224 45.4954C45.8175 44.7349 46.512 43.9744 47.2725 43.2799ZM23.5952 38.3857L25.9431 40.4359C25.3479 41.0558 24.7713 41.7131 24.2272 42.3795L23.6944 43.0481L21.1482 40.8656C21.9087 40.0391 22.7354 39.2122 23.5952 38.3857ZM56.3662 38.2534L57.0938 40.4359C56.3269 40.674 55.5596 40.9755 54.7924 41.3235L54.2168 41.5931L53.4563 39.3116C54.2831 38.9479 55.242 38.5841 56.3662 38.2534ZM64.1044 37.4597C64.9511 37.5128 65.8189 37.6076 66.7076 37.7621L67.3781 37.8896L67.2461 39.9397C66.3731 39.7545 65.5001 39.633 64.6271 39.5749L63.9724 39.543L64.1044 37.4597ZM36.955 28.3327L38.4431 30.6144C37.7981 30.9368 37.1721 31.2965 36.5365 31.6793L35.8968 32.0694L34.3757 29.7546C35.2685 29.2255 36.1283 28.7626 36.955 28.3327ZM64.1707 27.076C66.1384 27.6382 66.9847 28.0234 67.3237 28.2038L67.3781 28.2334L67.2461 30.4491C66.5404 30.1625 65.835 29.8906 65.1199 29.6334L64.0384 29.2586L64.1707 27.076ZM51.5385 25.125L52.1996 27.1422H51.8689C51.1496 27.1422 50.4304 27.1608 49.7111 27.212L48.9922 27.2745L48.3638 25.3234C49.455 25.1911 50.5133 25.125 51.5385 25.125Z" fill="white"/>
</g>
<defs>
<clipPath id="clip0_304_14561">
<rect width="96" height="96" fill="white"/>
</clipPath>
</defs>
</svg>
