<svg width="96" height="96" viewBox="0 0 96 96" fill="none" xmlns="http://www.w3.org/2000/svg">
<g clip-path="url(#clip0_304_14592)">
<path d="M73.5 0H22.5C10.0736 0 0 10.0736 0 22.5V73.5C0 85.9264 10.0736 96 22.5 96H73.5C85.9264 96 96 85.9264 96 73.5V22.5C96 10.0736 85.9264 0 73.5 0Z" fill="#FFD94C"/>
<mask id="mask0_304_14592" style="mask-type:luminance" maskUnits="userSpaceOnUse" x="17" y="20" width="62" height="56">
<path d="M78.75 20.4902H17.625V75.4073H78.75V20.4902Z" fill="white"/>
</mask>
<g mask="url(#mask0_304_14592)">
<path d="M55.3459 54.5118L54.1737 56.5477C54.0001 56.8488 53.7499 57.099 53.4488 57.273C53.1481 57.447 52.8064 57.5388 52.4588 57.5388H43.4768C43.1288 57.5388 42.7872 57.447 42.4864 57.273C42.1853 57.099 41.9356 56.8488 41.7619 56.5477L40.5893 54.5118H55.3459ZM58.6283 48.8122L56.5609 52.4017H39.3743L37.3071 48.8122H58.6283ZM56.6371 43.239L58.6317 46.7025H37.3037L39.2986 43.239H56.6371ZM52.4584 37.9702C52.8061 37.9702 53.1477 38.0617 53.4488 38.2357C53.7499 38.4097 54.0001 38.6598 54.1737 38.9613L55.4217 41.1292H40.5136L41.7619 38.9613C41.9356 38.6602 42.1857 38.4097 42.4864 38.2357C42.7876 38.0617 43.1292 37.9702 43.4768 37.9702H52.4584Z" fill="#00435B"/>
<path d="M30.4047 37.0252C29.4097 32.2006 29.196 28.5001 29.8393 25.8133C30.2218 24.2152 30.9209 22.9115 31.9844 21.9708C33.1071 20.9777 34.5263 20.4904 36.1213 20.4904C38.7522 20.4904 41.5182 21.6902 44.4735 23.9692C45.6792 24.899 46.9305 26.0196 48.2299 27.3316C48.3334 27.1986 48.45 27.073 48.5805 26.9568C52.2544 23.6832 55.3474 21.6489 57.9927 20.8648C59.5658 20.3982 61.0425 20.3538 62.3873 20.8065C63.807 21.2841 64.938 22.2718 65.736 23.655C67.053 25.9379 67.4003 28.9376 66.9094 32.6416C66.7095 34.1514 66.3675 35.7957 65.8838 37.5776C66.066 37.5997 66.249 37.6402 66.4302 37.7002C71.0914 39.2449 74.3922 40.9057 76.3902 42.8044C77.5793 43.9339 78.3555 45.1912 78.6364 46.5832C78.9323 48.0521 78.6435 49.5259 77.8467 50.9081C76.5319 53.1877 74.1147 54.9855 70.671 56.4094C69.2884 56.9812 67.7235 57.4991 65.976 57.9649C66.0555 58.1449 66.1178 58.3365 66.1587 58.5367C67.1539 63.3615 67.3673 67.062 66.7242 69.7489C66.3417 71.3471 65.6427 72.6506 64.5792 73.5915C63.4568 74.5841 62.037 75.072 60.4425 75.072C57.8115 75.072 55.0455 73.8716 52.0902 71.5931C50.8714 70.6534 49.6065 69.5186 48.2922 68.1885C48.1538 68.4049 47.9865 68.6006 47.7945 68.7716C44.1207 72.0457 41.0277 74.0794 38.3824 74.8635C36.8092 75.3304 35.3324 75.3746 33.9877 74.922C32.568 74.4442 31.4369 73.4569 30.6387 72.0735C29.3216 69.7909 28.9745 66.7909 29.4654 63.087C29.6729 61.5229 30.0327 59.8136 30.5441 57.957C30.3403 57.9364 30.1393 57.8932 29.9448 57.8287C25.2838 56.2837 21.9831 54.6229 19.9848 52.7246C18.7957 51.5951 18.0195 50.3377 17.7387 48.9457C17.4426 47.4765 17.7315 46.0027 18.5285 44.6205C19.8432 42.3412 22.2605 40.5431 25.704 39.1192C27.1278 38.5305 28.7445 37.9987 30.5558 37.5221C30.4905 37.3615 30.4399 37.1951 30.4047 37.0252Z" fill="#002B3B"/>
<path d="M62.907 59.0115C63.1294 58.9721 63.3585 59.0197 63.5467 59.1446C63.735 59.2695 63.8681 59.4622 63.918 59.6824L63.9236 59.7094L63.9731 59.9659C65.5751 68.3887 64.4467 72.6004 60.5872 72.6004C56.8114 72.6004 52.005 69.0067 46.1674 61.8191C46.0639 61.6916 45.9979 61.5371 45.9776 61.374C45.9574 61.2109 45.9829 61.0451 46.0519 60.8955C46.1212 60.7463 46.2307 60.6195 46.3684 60.5291C46.506 60.4391 46.6661 60.3892 46.8307 60.3855H46.8577L47.1652 60.3877C49.6219 60.4009 52.0099 60.3154 54.3292 60.1309C57.0671 59.9126 59.9265 59.5395 62.907 59.0115ZM36.4033 52.6444L36.4181 52.6695L36.5723 52.9387C37.8082 55.0875 39.096 57.1271 40.4355 59.0576C42.0135 61.3309 43.7876 63.6319 45.7579 65.9614C45.9041 66.1343 45.978 66.357 45.9641 66.5828C45.9506 66.8093 45.8501 67.0211 45.684 67.1749L45.6619 67.1944L45.4635 67.3654C38.9437 72.9521 34.7059 74.0674 32.7506 70.7111C30.8365 67.4261 31.5304 61.4531 34.8324 52.7921C34.8909 52.6388 34.9911 52.5045 35.1219 52.4051C35.2525 52.3057 35.4085 52.245 35.5719 52.2296C35.7354 52.2143 35.8999 52.245 36.0469 52.3185C36.1938 52.3916 36.3173 52.5045 36.4033 52.6444ZM66.2156 40.2157L66.2422 40.2244L66.4879 40.3091C74.5354 43.1085 77.5927 46.1854 75.6604 49.5386C73.7704 52.8184 68.2751 55.2064 59.1754 56.7026C59.0104 56.73 58.8409 56.7094 58.6871 56.6438C58.5337 56.5781 58.4017 56.4701 58.3072 56.3325C58.2127 56.1945 58.1595 56.0325 58.1535 55.8656C58.1475 55.6984 58.1895 55.5334 58.2742 55.3894C59.5777 53.172 60.7515 50.9663 61.7959 48.7714C62.9801 46.2821 64.0916 43.6102 65.1304 40.7557C65.2057 40.5484 65.3565 40.3766 65.5526 40.2754C65.7484 40.1738 65.976 40.1498 66.189 40.2079L66.2156 40.2157ZM37.788 38.8061C37.8877 38.8646 37.9747 38.9423 38.0445 39.0345C38.1142 39.1264 38.1649 39.2314 38.1937 39.3435C38.223 39.4553 38.2297 39.5715 38.2136 39.6859C38.1979 39.8003 38.1596 39.9105 38.1007 40.0099C36.7972 42.2269 35.6233 44.433 34.5791 46.6279C33.3948 49.1171 32.2833 51.789 31.2447 54.6435C31.1675 54.8554 31.0119 55.0298 30.81 55.1303C30.6081 55.2308 30.3753 55.2499 30.1597 55.1835L30.1329 55.1749L29.8875 55.0901C21.8398 52.2904 18.7823 49.2142 20.7149 45.8606C22.605 42.5809 28.0999 40.1925 37.1998 38.6963C37.4028 38.6629 37.611 38.7019 37.788 38.8061ZM63.6244 25.0175C65.5384 28.3025 64.8446 34.2755 61.5427 42.9368C61.4842 43.0901 61.3837 43.224 61.2532 43.3234C61.1224 43.4227 60.9664 43.4839 60.8032 43.4993C60.6397 43.5146 60.4751 43.4839 60.3281 43.4104C60.1811 43.3373 60.0577 43.224 59.9719 43.0841L59.9569 43.059L59.8027 42.7901C58.5667 40.641 57.279 38.6014 55.9395 36.6711C54.3615 34.398 52.5874 32.0967 50.6171 29.7673C50.4709 29.5944 50.397 29.3718 50.4109 29.1458C50.4244 28.9198 50.5249 28.7078 50.691 28.5539L50.7131 28.5341L50.9115 28.3633C57.4312 22.777 61.6691 21.6617 63.6244 25.0175ZM36.1177 23.0187C39.8936 23.0187 44.7 26.6124 50.5376 33.7997C50.6411 33.9274 50.7071 34.0817 50.7274 34.245C50.7476 34.4082 50.7221 34.5739 50.6531 34.7233C50.5837 34.8726 50.4742 34.9996 50.3366 35.0898C50.199 35.18 50.0389 35.2298 49.8742 35.2335H49.8472L49.5397 35.2315C47.0835 35.2182 44.6955 35.3039 42.3757 35.4885C39.6375 35.7066 36.7784 36.0796 33.7981 36.6076C33.5756 36.647 33.3466 36.5992 33.1584 36.4744C32.9702 36.3494 32.8372 36.1569 32.7871 35.9367L32.7814 35.9097L32.7319 35.6532C31.1296 27.2303 32.2582 23.0187 36.1177 23.0187Z" fill="#FF4154"/>
<path d="M44.1991 38.0801H51.7384C52.2799 38.0801 52.8121 38.223 53.2808 38.4945C53.7496 38.766 54.1384 39.1564 54.4081 39.6263L58.1937 46.2225C58.4614 46.6886 58.6021 47.217 58.6021 47.7548C58.6021 48.2925 58.4614 48.8205 58.1937 49.287L54.4081 55.8833C54.1384 56.3531 53.7496 56.7435 53.2808 57.0146C52.8121 57.2861 52.2799 57.4294 51.7384 57.4294H44.1991C43.0962 57.4294 42.0781 56.8395 41.5291 55.8833L37.7438 49.287C37.4761 48.8205 37.3353 48.2925 37.3353 47.7548C37.3353 47.217 37.4761 46.6886 37.7438 46.2225L41.5294 39.6263C41.7987 39.1564 42.1876 38.766 42.6563 38.4945C43.1254 38.223 43.6572 38.0801 44.1991 38.0801ZM50.5894 40.071C51.6923 40.071 52.7116 40.6616 53.2598 41.6186L55.8998 46.224C56.1668 46.6898 56.3074 47.2178 56.3074 47.7548C56.3074 48.2918 56.1668 48.8194 55.8998 49.2855L53.2598 53.8909C52.9906 54.3611 52.6017 54.7519 52.1326 55.0234C51.6638 55.2953 51.1313 55.4381 50.5894 55.4381H45.3484C44.2452 55.4381 43.2263 54.8479 42.6777 53.8909L40.0381 49.2855C39.7707 48.8194 39.6301 48.2918 39.6301 47.7548C39.6301 47.2178 39.7707 46.6898 40.0381 46.224L42.6777 41.6186C42.9473 41.1484 43.3362 40.7576 43.8049 40.4861C44.2737 40.2143 44.8062 40.0714 45.3481 40.0714L50.5894 40.071ZM49.3508 42.2486H46.5867C46.0456 42.2486 45.5134 42.3915 45.0447 42.6626C44.5763 42.9338 44.1874 43.3241 43.9178 43.7936L42.5228 46.221C42.2547 46.6879 42.1133 47.2166 42.1133 47.7548C42.1133 48.2929 42.2547 48.8216 42.5228 49.2885L43.9178 51.7163C44.1874 52.1858 44.5763 52.5758 45.0447 52.8469C45.5134 53.1184 46.0456 53.2609 46.5867 53.2609H49.3508C50.4529 53.2609 51.4711 52.6718 52.0201 51.7163L53.4151 49.2885C53.6832 48.8216 53.8242 48.2929 53.8242 47.7548C53.8242 47.2166 53.6832 46.6879 53.4151 46.221L52.0201 43.7933C51.7504 43.3238 51.3616 42.9338 50.8928 42.6623C50.4244 42.3911 49.8923 42.2486 49.3508 42.2486ZM48.1583 44.3325C49.2597 44.3325 50.2771 44.9209 50.8261 45.8753L51.0241 46.2191C51.2929 46.686 51.4347 47.2155 51.4347 47.7544C51.4347 48.2933 51.2929 48.8228 51.0241 49.29L50.8261 49.6339C50.5564 50.1026 50.1676 50.4923 49.6992 50.763C49.2308 51.0338 48.6994 51.1763 48.1583 51.1763H47.7792C47.2384 51.1763 46.7067 51.0338 46.2383 50.763C45.7699 50.4923 45.3814 50.1026 45.1114 49.6339L44.9134 49.29C44.6446 48.8228 44.5032 48.2933 44.5032 47.7544C44.5032 47.2155 44.6446 46.686 44.9134 46.2191L45.1114 45.8753C45.3814 45.4061 45.7699 45.0169 46.2383 44.7461C46.7067 44.475 47.2384 44.3325 47.7792 44.3325H48.1583ZM47.9693 46.386C47.7289 46.3856 47.4927 46.449 47.2842 46.569C47.0761 46.6894 46.9032 46.8619 46.7828 47.07C46.6624 47.2781 46.5991 47.5144 46.5991 47.7544C46.5991 47.9948 46.6624 48.2306 46.7828 48.4388C46.9028 48.6469 47.0757 48.8198 47.2842 48.9401C47.4923 49.0601 47.7286 49.1235 47.9689 49.1235C48.2093 49.1235 48.4456 49.0601 48.6537 48.9401C48.8622 48.8198 49.0351 48.6469 49.1554 48.4388C49.2754 48.2306 49.3388 47.9948 49.3388 47.7544C49.3388 47.5144 49.2754 47.2781 49.1554 47.07C49.0351 46.8623 48.8622 46.6894 48.6541 46.5694C48.4456 46.449 48.2097 46.386 47.9693 46.386Z" fill="#FFD94C"/>
</g>
</g>
<defs>
<clipPath id="clip0_304_14592">
<rect width="96" height="96" fill="white"/>
</clipPath>
</defs>
</svg>
