<svg width="96" height="96" viewBox="0 0 96 96" fill="none" xmlns="http://www.w3.org/2000/svg">
<g clip-path="url(#clip0_304_14564)">
<path d="M73.5 0H22.5C10.0736 0 0 10.0736 0 22.5V73.5C0 85.9264 10.0736 96 22.5 96H73.5C85.9264 96 96 85.9264 96 73.5V22.5C96 10.0736 85.9264 0 73.5 0Z" fill="#242938"/>
<path d="M48.0004 55.1066C51.8644 55.1066 54.9964 51.9742 54.9964 48.1106C54.9964 44.247 51.8644 41.1146 48.0004 41.1146C44.1368 41.1146 41.0044 44.247 41.0044 48.1106C41.0044 51.9742 44.1368 55.1066 48.0004 55.1066Z" fill="#00D8FF"/>
<path fill-rule="evenodd" clip-rule="evenodd" d="M48.0007 33.8862C57.3937 33.8862 66.1196 35.2341 72.699 37.4991C80.6261 40.2281 85.5 44.3647 85.5 48.1106C85.5 52.014 80.3347 56.4086 71.8219 59.229C65.3861 61.3612 56.9171 62.4742 48.0007 62.4742C38.859 62.4742 30.2021 61.4295 23.6938 59.2054C15.4596 56.391 10.5 51.9397 10.5 48.1106C10.5 44.3951 15.1536 40.2904 22.9693 37.5656C29.5731 35.2632 38.5144 33.8862 47.9993 33.8862H48.0007Z" stroke="#00D8FF" stroke-width="3"/>
<path fill-rule="evenodd" clip-rule="evenodd" d="M35.6179 41.0393C40.3106 32.9026 45.837 26.0169 51.0863 21.4489C57.4103 15.9452 63.429 13.7898 66.6735 15.6609C70.0549 17.6109 71.2815 24.2811 69.4721 33.0642C68.1053 39.7046 64.8375 47.5969 60.3829 55.3211C55.8158 63.2404 50.5864 70.2176 45.4088 74.7431C38.8571 80.4701 32.5232 82.5428 29.2062 80.6299C25.9876 78.7751 24.7568 72.6922 26.3009 64.5604C27.6054 57.6892 30.8794 49.2559 35.6164 41.0393H35.6179Z" stroke="#00D8FF" stroke-width="3"/>
<path fill-rule="evenodd" clip-rule="evenodd" d="M35.6297 55.3418C30.9238 47.214 27.7198 38.9858 26.3825 32.1569C24.7726 23.9291 25.9108 17.6383 29.1526 15.7618C32.5307 13.8061 38.9221 16.0748 45.6278 22.0289C50.6978 26.5305 55.9039 33.302 60.3713 41.0186C64.9516 48.9304 68.3843 56.946 69.7197 63.6915C71.4094 72.228 70.0418 78.7504 66.7279 80.6685C63.5127 82.53 57.6286 80.5594 51.3544 75.1601C46.0534 70.5986 40.3819 63.5505 35.6297 55.3418Z" stroke="#00D8FF" stroke-width="3"/>
</g>
<defs>
<clipPath id="clip0_304_14564">
<rect width="96" height="96" fill="white"/>
</clipPath>
</defs>
</svg>
