<svg width="256" height="256" viewBox="0 0 256 256" fill="none" xmlns="http://www.w3.org/2000/svg">
<g clip-path="url(#clip0_304_11533)">
<path d="M196 0H60C26.8629 0 0 26.8629 0 60V196C0 229.137 26.8629 256 60 256H196C229.137 256 256 229.137 256 196V60C256 26.8629 229.137 0 196 0Z" fill="#FFD94C"/>
<mask id="mask0_304_11533" style="mask-type:luminance" maskUnits="userSpaceOnUse" x="47" y="54" width="163" height="148">
<path d="M210 54.6406H47V201.086H210V54.6406Z" fill="white"/>
</mask>
<g mask="url(#mask0_304_11533)">
<path d="M147.589 145.365L144.463 150.794C144 151.597 143.333 152.264 142.53 152.728C141.728 153.192 140.817 153.437 139.89 153.437H115.938C115.01 153.437 114.099 153.192 113.297 152.728C112.494 152.264 111.828 151.597 111.365 150.794L108.238 145.365H147.589ZM156.342 130.166L150.829 139.738H104.998L99.4853 130.166H156.342ZM151.032 115.304L156.351 124.54H99.4763L104.796 115.304H151.032ZM139.889 101.254C140.816 101.254 141.727 101.498 142.53 101.962C143.333 102.426 144 103.093 144.463 103.897L147.791 109.678H108.036L111.365 103.897C111.828 103.094 112.495 102.426 113.297 101.962C114.1 101.498 115.011 101.254 115.938 101.254H139.889Z" fill="#00435B"/>
<path d="M81.0791 98.7338C78.4259 85.8683 77.856 76.0004 79.5713 68.8354C80.5914 64.5739 82.4557 61.0974 85.2916 58.5887C88.2855 55.9406 92.0701 54.6411 96.3234 54.6411C103.339 54.6411 110.715 57.8406 118.596 63.918C121.811 66.3974 125.148 69.3855 128.613 72.8843C128.889 72.5297 129.2 72.1947 129.548 71.8847C139.345 63.1552 147.593 57.7304 154.647 55.6395C158.842 54.3953 162.78 54.2769 166.366 55.4841C170.152 56.7575 173.168 59.3916 175.296 63.0801C178.808 69.1678 179.734 77.1669 178.425 87.0443C177.892 91.0703 176.98 95.4553 175.69 100.207C176.176 100.266 176.664 100.374 177.147 100.534C189.577 104.653 198.379 109.082 203.707 114.145C206.878 117.157 208.948 120.51 209.697 124.222C210.486 128.139 209.716 132.069 207.591 135.755C204.085 141.834 197.639 146.628 188.456 150.425C184.769 151.95 180.596 153.331 175.936 154.573C176.148 155.053 176.314 155.564 176.423 156.098C179.077 168.964 179.646 178.832 177.931 185.997C176.911 190.259 175.047 193.735 172.211 196.244C169.218 198.891 165.432 200.192 161.18 200.192C154.164 200.192 146.788 196.991 138.907 190.915C135.657 188.409 132.284 185.383 128.779 181.836C128.41 182.413 127.964 182.935 127.452 183.391C117.655 192.122 109.407 197.545 102.353 199.636C98.1578 200.881 94.2197 200.999 90.6337 199.792C86.8478 198.518 83.8316 195.885 81.7031 192.196C78.1909 186.109 77.2652 178.109 78.5742 168.232C79.1276 164.061 80.0871 159.503 81.4509 154.552C80.9073 154.497 80.3713 154.382 79.8528 154.21C67.4234 150.09 58.6214 145.661 53.2927 140.599C50.1218 137.587 48.0518 134.234 47.303 130.522C46.5135 126.604 47.2839 122.674 49.4093 118.988C52.9151 112.91 59.3612 108.115 68.544 104.318C72.3408 102.748 76.652 101.33 81.4821 100.059C81.3079 99.6307 81.1729 99.187 81.0791 98.7338Z" fill="#002B3B"/>
<path d="M167.752 157.364C168.345 157.259 168.956 157.386 169.458 157.719C169.96 158.052 170.315 158.566 170.448 159.153L170.463 159.225L170.595 159.909C174.867 182.37 171.858 193.601 161.566 193.601C151.497 193.601 138.68 184.018 123.113 164.851C122.837 164.511 122.661 164.099 122.607 163.664C122.553 163.229 122.621 162.787 122.805 162.388C122.99 161.99 123.282 161.652 123.649 161.411C124.016 161.171 124.443 161.038 124.882 161.028H124.954L125.774 161.034C132.325 161.069 138.693 160.841 144.878 160.349C152.179 159.767 159.804 158.772 167.752 157.364ZM97.0753 140.385L97.1148 140.452L97.5261 141.17C100.822 146.9 104.256 152.339 107.828 157.487C112.036 163.549 116.767 169.685 122.021 175.897C122.411 176.358 122.608 176.952 122.571 177.554C122.535 178.158 122.267 178.723 121.824 179.133L121.765 179.185L121.236 179.641C103.85 194.539 92.5491 197.513 87.3348 188.563C82.2305 179.803 84.0809 163.875 92.8863 140.779C93.0422 140.37 93.3096 140.012 93.6582 139.747C94.0067 139.482 94.4225 139.32 94.8584 139.279C95.2944 139.238 95.7331 139.32 96.1249 139.516C96.5166 139.711 96.846 140.012 97.0753 140.385ZM176.575 107.242L176.646 107.265L177.301 107.491C198.761 114.956 206.914 123.161 201.761 132.103C196.721 140.849 182.067 147.217 157.801 151.207C157.361 151.28 156.909 151.225 156.499 151.05C156.09 150.875 155.738 150.587 155.486 150.22C155.234 149.852 155.092 149.42 155.076 148.975C155.06 148.529 155.172 148.089 155.398 147.705C158.874 141.792 162.004 135.91 164.789 130.057C167.947 123.419 170.911 116.294 173.681 108.682C173.882 108.129 174.284 107.671 174.807 107.401C175.329 107.13 175.936 107.066 176.504 107.221L176.575 107.242ZM100.768 103.483C101.034 103.639 101.266 103.846 101.452 104.092C101.638 104.337 101.773 104.617 101.85 104.916C101.928 105.214 101.946 105.524 101.903 105.829C101.861 106.134 101.759 106.428 101.602 106.693C98.1259 112.605 94.9954 118.488 92.2108 124.341C89.0526 130.979 86.0887 138.104 83.319 145.716C83.1133 146.281 82.6984 146.746 82.16 147.014C81.6215 147.282 81.0007 147.333 80.4257 147.156L80.3544 147.133L79.6999 146.907C58.2395 139.441 50.0861 131.238 55.2397 122.295C60.28 113.549 74.9331 107.18 99.1994 103.19C99.7406 103.101 100.296 103.205 100.768 103.483ZM169.665 66.7133C174.769 75.4733 172.919 91.4014 164.114 114.498C163.958 114.907 163.69 115.264 163.342 115.529C162.993 115.794 162.577 115.957 162.142 115.998C161.706 116.039 161.267 115.957 160.875 115.761C160.483 115.566 160.154 115.264 159.925 114.891L159.885 114.824L159.474 114.107C156.178 108.376 152.744 102.937 149.172 97.7896C144.964 91.728 140.233 85.5913 134.979 79.3795C134.589 78.9185 134.392 78.3249 134.429 77.7221C134.465 77.1194 134.733 76.5541 135.176 76.1437L135.235 76.0909L135.764 75.6356C153.15 60.7386 164.451 57.7644 169.665 66.7133ZM96.3138 61.3833C106.383 61.3833 119.2 70.9664 134.767 90.1324C135.043 90.4731 135.219 90.8845 135.273 91.3199C135.327 91.7553 135.259 92.1972 135.075 92.5955C134.89 92.9937 134.598 93.3323 134.231 93.5729C133.864 93.8133 133.437 93.946 132.998 93.9559H132.926L132.106 93.9508C125.556 93.9152 119.188 94.1436 113.002 94.6359C105.7 95.2175 98.0756 96.2123 90.1281 97.6202C89.5349 97.7252 88.9242 97.598 88.4223 97.265C87.9204 96.9318 87.5659 96.4184 87.4322 95.8311L87.4169 95.7591L87.2851 95.0753C83.0123 72.614 86.0219 61.3833 96.3138 61.3833Z" fill="#FF4154"/>
<path d="M117.864 101.547H137.969C139.413 101.547 140.832 101.928 142.082 102.652C143.332 103.376 144.369 104.417 145.088 105.67L155.183 123.26C155.897 124.503 156.272 125.912 156.272 127.346C156.272 128.78 155.897 130.188 155.183 131.432L145.088 149.022C144.369 150.275 143.332 151.316 142.082 152.039C140.832 152.763 139.413 153.145 137.969 153.145H117.864C114.923 153.145 112.208 151.572 110.744 149.022L100.65 131.432C99.9362 130.188 99.5607 128.78 99.5607 127.346C99.5607 125.912 99.9362 124.503 100.65 123.26L110.745 105.67C111.463 104.417 112.5 103.376 113.75 102.652C115.001 101.928 116.419 101.547 117.864 101.547ZM134.905 106.856C137.846 106.856 140.564 108.431 142.026 110.983L149.066 123.264C149.778 124.506 150.153 125.914 150.153 127.346C150.153 128.778 149.778 130.185 149.066 131.428L142.026 143.709C141.308 144.963 140.271 146.005 139.02 146.729C137.77 147.454 136.35 147.835 134.905 147.835H120.929C117.987 147.835 115.27 146.261 113.807 143.709L106.768 131.428C106.055 130.185 105.68 128.778 105.68 127.346C105.68 125.914 106.055 124.506 106.768 123.264L113.807 110.983C114.526 109.729 115.563 108.687 116.813 107.963C118.063 107.238 119.483 106.857 120.928 106.857L134.905 106.856ZM131.602 112.663H124.231C122.788 112.663 121.369 113.044 120.119 113.767C118.87 114.49 117.833 115.531 117.114 116.783L113.394 123.256C112.679 124.501 112.302 125.911 112.302 127.346C112.302 128.781 112.679 130.191 113.394 131.436L117.114 137.91C117.833 139.162 118.87 140.202 120.119 140.925C121.369 141.649 122.788 142.029 124.231 142.029H131.602C134.541 142.029 137.256 140.458 138.72 137.91L142.44 131.436C143.155 130.191 143.531 128.781 143.531 127.346C143.531 125.911 143.155 124.501 142.44 123.256L138.72 116.782C138.001 115.53 136.964 114.49 135.714 113.766C134.465 113.043 133.046 112.663 131.602 112.663ZM128.422 118.22C131.359 118.22 134.072 119.789 135.536 122.334L136.064 123.251C136.781 124.496 137.159 125.908 137.159 127.345C137.159 128.782 136.781 130.194 136.064 131.44L135.536 132.357C134.817 133.607 133.78 134.646 132.531 135.368C131.282 136.09 129.865 136.47 128.422 136.47H127.411C125.969 136.47 124.551 136.09 123.302 135.368C122.053 134.646 121.017 133.607 120.297 132.357L119.769 131.44C119.052 130.194 118.675 128.782 118.675 127.345C118.675 125.908 119.052 124.496 119.769 123.251L120.297 122.334C121.017 121.083 122.053 120.045 123.302 119.323C124.551 118.6 125.969 118.22 127.411 118.22H128.422ZM127.918 123.696C127.277 123.695 126.647 123.864 126.091 124.184C125.536 124.505 125.075 124.965 124.754 125.52C124.433 126.075 124.264 126.705 124.264 127.345C124.264 127.986 124.433 128.615 124.754 129.17C125.074 129.725 125.535 130.186 126.091 130.507C126.646 130.827 127.276 130.996 127.917 130.996C128.558 130.996 129.188 130.827 129.743 130.507C130.299 130.186 130.76 129.725 131.081 129.17C131.401 128.615 131.57 127.986 131.57 127.345C131.57 126.705 131.401 126.075 131.081 125.52C130.76 124.966 130.299 124.505 129.744 124.185C129.188 123.864 128.559 123.696 127.918 123.696Z" fill="#FFD94C"/>
</g>
</g>
<defs>
<clipPath id="clip0_304_11533">
<rect width="256" height="256" fill="white"/>
</clipPath>
</defs>
</svg>
