<svg width="96" height="96" viewBox="0 0 96 96" fill="none" xmlns="http://www.w3.org/2000/svg">
<g clip-path="url(#clip0_304_14514)">
<path d="M85.7143 0H10.2857C4.60507 0 0 4.60507 0 10.2857V85.7143C0 91.3949 4.60507 96 10.2857 96H85.7143C91.3949 96 96 91.3949 96 85.7143V10.2857C96 4.60507 91.3949 0 85.7143 0Z" fill="#F03E2F"/>
<path d="M29.5543 24.8571C29.5543 33.12 34.7657 38.0228 45.12 40.6285L56.1257 43.1314C65.9657 45.3257 71.9314 50.8457 71.9314 59.8285C72.0026 63.7458 70.7052 67.5651 68.2628 70.6285C68.2628 61.68 63.5657 56.8457 52.1828 53.9314L41.3828 51.5314C32.7428 49.5771 26.0571 45.0514 26.0571 35.3143C26.0105 31.5339 27.2429 27.8488 29.5543 24.8571Z" fill="white"/>
<path d="M61.5086 57.6C66.2057 60.5828 68.2629 64.6971 68.2629 70.6286C64.3886 75.4971 57.5657 78.24 49.5429 78.24C36.0343 78.24 26.5714 71.7257 24.5143 60.3771H37.4743C39.12 65.5886 43.5429 67.9885 49.4743 67.9885C56.6743 67.9885 61.44 64.2171 61.5429 57.6" fill="white" fill-opacity="0.701961"/>
<path d="M36.3086 37.0971C34.1861 35.8528 32.4385 34.0592 31.2498 31.9051C30.0612 29.751 29.4754 27.3162 29.5543 24.8571C33.3257 20.0571 39.84 17.0743 47.7943 17.0743C61.5086 17.0743 69.4971 24.2057 71.4514 34.2171H58.9714C57.6 30.2743 54.1714 27.1886 47.8971 27.1886C41.1771 27.1886 36.5828 31.0286 36.3428 37.1314" fill="white" fill-opacity="0.701961"/>
</g>
<defs>
<clipPath id="clip0_304_14514">
<rect width="96" height="96" rx="48" fill="white"/>
</clipPath>
</defs>
</svg>
