<svg width="256" height="256" viewBox="0 0 256 256" fill="none" xmlns="http://www.w3.org/2000/svg">
<g clip-path="url(#clip0_304_11442)">
<path d="M228.571 0H27.4286C12.2802 0 0 12.2802 0 27.4286V228.571C0 243.72 12.2802 256 27.4286 256H228.571C243.72 256 256 243.72 256 228.571V27.4286C256 12.2802 243.72 0 228.571 0Z" fill="#F03E2F"/>
<path d="M78.8114 66.2856C78.8114 88.3199 92.7086 101.394 120.32 108.343L149.669 115.017C175.909 120.869 191.817 135.589 191.817 159.543C192.007 169.989 188.547 180.174 182.034 188.343C182.034 164.48 169.509 151.589 139.154 143.817L110.354 137.417C87.3143 132.206 69.4857 120.137 69.4857 94.1714C69.3613 84.0905 72.6477 74.2636 78.8114 66.2856Z" fill="white"/>
<path d="M164.023 153.6C176.549 161.554 182.034 172.526 182.034 188.343C171.703 201.326 153.509 208.64 132.114 208.64C96.0914 208.64 70.8571 191.269 65.3714 161.006H99.9314C104.32 174.903 116.114 181.303 131.931 181.303C151.131 181.303 163.84 171.246 164.114 153.6" fill="white" fill-opacity="0.701961"/>
<path d="M96.8228 98.9255C91.163 95.6074 86.5027 90.8243 83.3329 85.08C80.1631 79.3358 78.6011 72.843 78.8114 66.2855C88.8686 53.4855 106.24 45.5312 127.451 45.5312C164.023 45.5312 185.326 64.5484 190.537 91.2455H157.257C153.6 80.7312 144.457 72.5027 127.726 72.5027C109.806 72.5027 97.5543 82.7427 96.9143 99.017" fill="white" fill-opacity="0.701961"/>
</g>
<defs>
<clipPath id="clip0_304_11442">
<rect width="256" height="256" rx="60" fill="white"/>
</clipPath>
</defs>
</svg>
