<svg width="96" height="96" viewBox="0 0 96 96" fill="none" xmlns="http://www.w3.org/2000/svg">
<g clip-path="url(#clip0_304_14570)">
<path d="M73.5 0H22.5C10.0736 0 0 10.0736 0 22.5V73.5C0 85.9264 10.0736 96 22.5 96H73.5C85.9264 96 96 85.9264 96 73.5V22.5C96 10.0736 85.9264 0 73.5 0Z" fill="#CD6799"/>
<mask id="mask0_304_14570" style="mask-type:luminance" maskUnits="userSpaceOnUse" x="10" y="19" width="76" height="58">
<path d="M85.5 19.875H10.5V76.0909H85.5V19.875Z" fill="white"/>
</mask>
<g mask="url(#mask0_304_14570)">
<path d="M75.0402 52.1861C72.4249 52.1996 70.1524 52.8296 68.2493 53.7604C67.551 52.3777 66.8528 51.1455 66.7294 50.2417C66.5925 49.1876 66.4283 48.5441 66.5925 47.2845C66.7568 46.0249 67.4963 44.2316 67.4824 44.0947C67.4689 43.9575 67.3182 43.3144 65.8122 43.3005C64.3062 43.287 63.0057 43.5881 62.8549 43.9852C62.7042 44.382 62.4169 45.2857 62.2253 46.2169C61.965 47.586 59.2129 52.4737 57.6387 55.0339C57.132 54.0345 56.694 53.1581 56.598 52.4599C56.4612 51.4057 56.2969 50.7622 56.4612 49.5026C56.6254 48.243 57.3649 46.4494 57.351 46.3125C57.3375 46.1756 57.1868 45.5321 55.6808 45.5186C54.1748 45.5047 52.8739 45.8059 52.7235 46.203C52.5728 46.6001 52.4085 47.5312 52.0935 48.4346C51.7789 49.3384 48.1234 57.4984 47.1649 59.6066C46.6722 60.6881 46.2477 61.5506 45.9465 62.1394C45.9465 62.1394 45.9327 62.1806 45.8918 62.2489C45.6315 62.7555 45.4808 63.0292 45.4808 63.0292C45.4808 63.0292 45.4808 63.0292 45.4808 63.0431C45.2757 63.4129 45.0563 63.7549 44.9468 63.7549C44.8647 63.7549 44.7143 62.7694 44.9742 61.4276C45.522 58.5934 46.8225 54.1849 46.809 54.0345C46.809 53.9524 47.0554 53.1855 45.96 52.7884C44.892 52.3912 44.5088 53.0486 44.4128 53.0486C44.3172 53.0486 44.2485 53.2815 44.2485 53.2815C44.2485 53.2815 45.4399 48.3251 41.976 48.3251C39.8127 48.3251 36.8281 50.6936 35.3494 52.8296C34.4184 53.3362 32.4332 54.4177 30.3111 55.5814C29.5033 56.0332 28.6682 56.4851 27.8878 56.9096C27.833 56.8549 27.7783 56.7862 27.7235 56.7315C23.534 52.2544 15.7848 49.092 16.1134 43.0815C16.2366 40.8907 16.9896 35.1406 30.9957 28.1581C42.5235 22.4763 51.6968 24.0508 53.2849 27.542C55.5574 32.5256 48.3698 41.7806 36.4584 43.1224C31.913 43.629 29.5307 41.8766 28.9283 41.2196C28.2985 40.5349 28.2027 40.494 27.9699 40.6309C27.5866 40.836 27.833 41.4521 27.9699 41.808C28.3259 42.7391 29.7909 44.382 32.2689 45.1897C34.4595 45.9019 39.7853 46.299 46.2338 43.8071C53.4492 41.0141 59.0899 33.2512 57.4332 26.7479C55.7768 20.1488 44.8238 17.9719 34.4595 21.6548C28.2985 23.8454 21.6172 27.2956 16.8117 31.7863C11.1025 37.1258 10.1988 41.7671 10.5685 43.7111C11.8965 50.6115 21.4119 55.1021 25.218 58.4291C25.0263 58.5386 24.8484 58.6346 24.6978 58.7167C22.7947 59.6614 15.5384 63.4537 13.7311 67.4655C11.6775 72.0109 14.0598 75.2692 15.6342 75.7072C20.5219 77.0629 25.5466 74.6257 28.2438 70.6005C30.9409 66.5752 30.6123 61.3455 29.3664 58.9496C29.3527 58.9222 29.3391 58.8949 29.3116 58.8675C29.8045 58.5799 30.3111 58.2787 30.804 57.9911C31.7761 57.4162 32.7344 56.8822 33.5559 56.4439C33.0904 57.7174 32.7481 59.2369 32.5838 61.4276C32.3785 64.0016 33.4327 67.3421 34.8155 68.6565C35.4316 69.2314 36.1572 69.2452 36.6227 69.2452C38.2384 69.2452 38.964 67.9035 39.7718 66.3154C40.7573 64.371 41.6475 62.112 41.6475 62.112C41.6475 62.112 40.5383 68.2185 43.5503 68.2185C44.6457 68.2185 45.7545 66.7946 46.2477 66.069C46.2477 66.0825 46.2477 66.0825 46.2477 66.0825C46.2477 66.0825 46.275 66.0416 46.3298 65.9456C46.4393 65.7675 46.5075 65.658 46.5075 65.658C46.5075 65.658 46.5075 65.6445 46.5075 65.6306C46.9459 64.8641 47.9314 63.1252 49.3965 60.2362C51.2858 56.5125 53.1068 51.8576 53.1068 51.8576C53.1068 51.8576 53.271 52.9939 53.8324 54.8831C54.1609 55.9924 54.8457 57.2107 55.3932 58.3882C54.9552 59.0044 54.6814 59.3464 54.6814 59.3464C54.6814 59.3464 54.6814 59.3464 54.6949 59.3602C54.339 59.8256 53.9558 60.3322 53.5313 60.825C52.0388 62.6051 50.259 64.6451 50.0127 65.2339C49.725 65.9321 49.7937 66.4384 50.3412 66.8494C50.7383 67.1505 51.45 67.1914 52.1757 67.1505C53.5174 67.0545 54.4624 66.726 54.9278 66.5205C55.6534 66.2606 56.5024 65.8635 57.2963 65.2747C58.7614 64.1932 59.6513 62.646 59.5692 60.606C59.5279 59.4832 59.1582 58.3609 58.7067 57.3064C58.8435 57.1147 58.9665 56.9231 59.1034 56.7315C61.4175 53.3497 63.2108 49.6395 63.2108 49.6395C63.2108 49.6395 63.375 50.7757 63.9364 52.6654C64.2102 53.6235 64.7715 54.6641 65.2647 55.6774C63.0878 57.4436 61.746 59.4971 61.2668 60.8389C60.4043 63.3307 61.0752 64.4531 62.3483 64.7134C62.9235 64.8367 63.7448 64.563 64.3474 64.3027C65.1139 64.0564 66.0177 63.6319 66.8802 63.0019C68.3449 61.9204 69.7553 60.4144 69.6732 58.3744C69.6319 57.4436 69.3855 56.526 69.0432 55.6361C70.8915 54.8696 73.2739 54.4451 76.3133 54.801C82.8304 55.5679 84.1174 59.634 83.8707 61.3455C83.6243 63.0566 82.2552 63.9877 81.8033 64.2754C81.3518 64.563 81.201 64.6586 81.2423 64.8641C81.297 65.1652 81.516 65.1514 81.8993 65.0966C82.4333 65.001 85.3219 63.714 85.4453 60.5651C85.6508 56.5399 81.8172 52.1449 75.0402 52.1861ZM24.7662 69.1357C22.603 71.4904 19.591 72.3806 18.2903 71.6276C16.8938 70.8195 17.4415 67.3421 20.0975 64.8502C21.7131 63.3307 23.7941 61.9204 25.1769 61.0579C25.4918 60.8662 25.9573 60.5925 26.5187 60.2501C26.6145 60.1954 26.6693 60.168 26.6693 60.168C26.7788 60.0994 26.8883 60.0311 26.9979 59.9625C27.9699 63.5224 27.0389 66.6577 24.7662 69.1357ZM40.5109 58.4291C39.7579 60.264 38.1837 64.9597 37.2251 64.6999C36.4036 64.4805 35.8971 60.921 37.0608 57.4024C37.6497 55.6361 38.8954 53.5279 39.621 52.7062C40.7985 51.3919 42.099 50.9539 42.414 51.4879C42.8112 52.1861 40.9767 57.279 40.5109 58.4291ZM53.5039 64.6451C53.1889 64.8094 52.8878 64.9189 52.7509 64.8367C52.6549 64.782 52.8878 64.563 52.8878 64.563C52.8878 64.563 54.5172 62.8102 55.1607 62.0164C55.53 61.5506 55.9684 61.0031 56.4338 60.387C56.4338 60.4417 56.4338 60.5104 56.4338 60.5651C56.4338 62.6599 54.4077 64.0699 53.5039 64.6451ZM63.5258 62.3584C63.2929 62.1941 63.3342 61.6466 64.1145 59.9351C64.4157 59.2642 65.1278 58.1419 66.3462 57.06C66.483 57.4984 66.579 57.9225 66.5652 58.3196C66.5517 60.9622 64.662 61.9477 63.5258 62.3584Z" fill="white"/>
</g>
</g>
<defs>
<clipPath id="clip0_304_14570">
<rect width="96" height="96" fill="white"/>
</clipPath>
</defs>
</svg>
