<svg width="96" height="96" viewBox="0 0 96 96" fill="none" xmlns="http://www.w3.org/2000/svg">
<g clip-path="url(#clip0_304_14577)">
<path d="M73.5 0H22.5C10.0736 0 0 10.0736 0 22.5V73.5C0 85.9264 10.0736 96 22.5 96H73.5C85.9264 96 96 85.9264 96 73.5V22.5C96 10.0736 85.9264 0 73.5 0Z" fill="#FF3E00"/>
<mask id="mask0_304_14577" style="mask-type:luminance" maskUnits="userSpaceOnUse" x="19" y="14" width="57" height="68">
<path d="M75.9915 14.25H19.875V81.75H75.9915V14.25Z" fill="white"/>
</mask>
<g mask="url(#mask0_304_14577)">
<path d="M72.3877 23.1737C66.1526 14.1928 53.7393 11.5614 44.8158 17.2246L29.0847 27.2923C24.7945 29.9809 21.8199 34.3856 20.9618 39.3622C20.2182 43.5382 20.8475 47.8282 22.8495 51.5467C21.4767 53.6059 20.5614 55.8941 20.161 58.2967C19.2458 63.3877 20.447 68.6505 23.4216 72.8261C29.714 81.8074 42.0697 84.4384 50.9936 78.7755L66.7245 68.7649C71.0148 66.0761 73.9893 61.6717 74.8473 56.6947C75.591 52.5191 74.9617 48.2287 72.9596 44.5106C74.3325 42.4511 75.2478 40.1632 75.6483 37.7606C76.6207 32.6123 75.4196 27.3496 72.3877 23.1737Z" fill="white"/>
<path d="M43.2712 73.6841C38.1802 75 32.8602 72.9979 29.8856 68.7075C28.0551 66.1905 27.3686 63.0446 27.8835 59.9554C27.9979 59.4405 28.1123 58.983 28.2267 58.4681L28.5127 57.5531L29.3135 58.125C31.2012 59.4979 33.2606 60.5276 35.4915 61.2139L36.0635 61.3856L36.0063 61.9575C35.9491 62.7585 36.1779 63.6165 36.6356 64.3031C37.551 65.6186 39.1526 66.2479 40.6969 65.8474C41.0404 65.733 41.3835 65.6186 41.6696 65.4469L57.3431 55.4362C58.1441 54.9217 58.659 54.1781 58.8304 53.2627C59.0021 52.3474 58.7734 51.375 58.2585 50.6314C57.3431 49.3155 55.7415 48.7436 54.1969 49.1441C53.8537 49.2585 53.5106 49.3729 53.2245 49.5446L47.2181 53.3771C46.2457 54.0064 45.159 54.4639 44.0149 54.75C38.9239 56.0655 33.6038 54.0634 30.6292 49.7734C28.8559 47.2564 28.1123 44.1101 28.6843 41.0212C29.1991 38.0467 31.0296 35.358 33.6038 33.7563L49.3346 23.7457C50.307 23.1165 51.3941 22.6589 52.5382 22.3156C57.6292 21 62.949 23.0021 65.9239 27.2923C67.7542 29.8093 68.4405 32.9555 67.926 36.0445C67.8112 36.5593 67.6969 37.0169 67.5255 37.5319L67.2394 38.4469L66.4384 37.875C64.551 36.5021 62.4915 35.4724 60.2606 34.786L59.6884 34.6144L59.7457 34.0423C59.8031 33.2415 59.574 32.3834 59.1165 31.697C58.2011 30.3813 56.5995 29.8093 55.0552 30.2097C54.7117 30.3241 54.3686 30.4385 54.0825 30.6101L38.409 40.6207C37.608 41.1356 37.0932 41.8792 36.9216 42.7946C36.75 43.7096 36.9788 44.6824 37.4936 45.426C38.409 46.7415 40.0106 47.3134 41.5552 46.9132C41.8984 46.7989 42.2415 46.6841 42.5276 46.5127L48.534 42.6802C49.5064 42.051 50.5931 41.5931 51.7372 41.25C56.8282 39.9341 62.1484 41.9362 65.1229 46.2266C66.9532 48.7436 67.6399 51.8899 67.125 54.9787C66.6101 57.9532 64.7797 60.642 62.2054 62.2436L46.4745 72.2542C45.5021 72.8835 44.4154 73.341 43.2712 73.6841Z" fill="#FF3E00"/>
</g>
</g>
<defs>
<clipPath id="clip0_304_14577">
<rect width="96" height="96" fill="white"/>
</clipPath>
</defs>
</svg>
