<svg width="96" height="96" viewBox="0 0 96 96" fill="none" xmlns="http://www.w3.org/2000/svg">
<g clip-path="url(#clip0_304_14585)">
<path d="M73.5 0H22.5C10.0736 0 0 10.0736 0 22.5V73.5C0 85.9264 10.0736 96 22.5 96H73.5C85.9264 96 96 85.9264 96 73.5V22.5C96 10.0736 85.9264 0 73.5 0Z" fill="#242938"/>
<path fill-rule="evenodd" clip-rule="evenodd" d="M31.125 41.25C33.3747 32.2503 39.0004 27.75 48 27.75C61.5 27.75 63.1875 37.875 69.9375 39.5625C74.4379 40.6879 78.375 39.0004 81.75 34.5C79.5004 43.4996 73.8746 48 64.875 48C51.375 48 49.6875 37.875 42.9375 36.1875C38.4371 35.0622 34.5 36.7497 31.125 41.25ZM14.25 61.5C16.4997 52.5004 22.1253 48 31.125 48C44.625 48 46.3125 58.125 53.0625 59.8125C57.5629 60.9379 61.5 59.2504 64.875 54.75C62.6254 63.7496 56.9996 68.25 48 68.25C34.5 68.25 32.8125 58.125 26.0625 56.4375C21.5622 55.3121 17.625 56.9996 14.25 61.5Z" fill="url(#paint0_linear_304_14585)"/>
</g>
<defs>
<linearGradient id="paint0_linear_304_14585" x1="32.4375" y1="27.75" x2="61.3125" y2="69.5625" gradientUnits="userSpaceOnUse">
<stop stop-color="#32B1C1"/>
<stop offset="1" stop-color="#14C6B7"/>
</linearGradient>
<clipPath id="clip0_304_14585">
<rect width="96" height="96" fill="white"/>
</clipPath>
</defs>
</svg>
