<svg width="96" height="96" viewBox="0 0 96 96" fill="none" xmlns="http://www.w3.org/2000/svg">
<g clip-path="url(#clip0_304_14588)">
<path d="M73.5 0H22.5C10.0736 0 0 10.0736 0 22.5V73.5C0 85.9264 10.0736 96 22.5 96H73.5C85.9264 96 96 85.9264 96 73.5V22.5C96 10.0736 85.9264 0 73.5 0Z" fill="#007ACC"/>
<path d="M21.2292 48.3184L21.1987 52.2499H27.4463H33.694V70.0024V87.7545H38.1131H42.5321V70.0024V52.2499H48.7796H55.0271V48.3945C55.0271 46.2611 54.9818 44.4784 54.9206 44.4326C54.8749 44.3719 47.271 44.3411 38.052 44.3565L21.2749 44.4022L21.2292 48.3184Z" fill="white"/>
<path d="M77.4626 44.2905C79.9005 44.9003 81.7598 45.9821 83.4664 47.7495C84.3503 48.6945 85.6605 50.4165 85.7674 50.8279C85.7978 50.9498 81.6225 53.7536 79.0931 55.323C79.0016 55.3841 78.6356 54.9878 78.2243 54.3784C76.9901 52.5803 75.6949 51.8029 73.7138 51.666C70.8034 51.4676 68.9291 52.9916 68.9445 55.5364C68.9445 56.283 69.051 56.7248 69.3559 57.3345C69.9956 58.6601 71.1844 59.4525 74.9179 61.0676C81.7901 64.0241 84.7309 65.9745 86.5598 68.7476C88.6016 71.841 89.0588 76.7783 87.672 80.4506C86.1484 84.4429 82.3691 87.1553 77.0509 88.0545C75.4054 88.344 71.5043 88.2983 69.7369 87.9784C65.8815 87.2925 62.2245 85.3879 59.9693 82.8889C59.0854 81.9135 57.3634 79.3688 57.4703 79.1858C57.5156 79.125 57.912 78.8813 58.3538 78.6221C58.7805 78.3784 60.396 77.4488 61.9196 76.5649L64.6778 74.9648L65.2568 75.8183C66.0645 77.0524 67.8319 78.744 68.8988 79.3076C71.9614 80.9231 76.1674 80.6944 78.2396 78.8355C79.1235 78.0278 79.4891 77.1896 79.4891 75.9555C79.4891 74.8429 79.3519 74.3554 78.7729 73.5173C78.0263 72.4508 76.5026 71.5515 72.1748 69.6773C67.2225 67.5439 65.0891 66.2183 63.1388 64.1153C62.0111 62.8965 60.9443 60.9458 60.5025 59.3153C60.1369 57.9593 60.0454 54.561 60.3349 53.1896C61.3556 48.405 64.9673 45.0679 70.1786 44.0771C71.8703 43.7573 75.8014 43.8791 77.4626 44.2905Z" fill="white"/>
</g>
<defs>
<clipPath id="clip0_304_14588">
<rect width="96" height="96" fill="white"/>
</clipPath>
</defs>
</svg>
