<svg width="256" height="256" viewBox="0 0 256 256" fill="none" xmlns="http://www.w3.org/2000/svg">
<g clip-path="url(#clip0_304_11487)">
<path d="M196 0H60C26.8629 0 0 26.8629 0 60V196C0 229.137 26.8629 256 60 256H196C229.137 256 256 229.137 256 196V60C256 26.8629 229.137 0 196 0Z" fill="#0073AA"/>
<path d="M42.2141 127.994C42.2141 161.949 61.9469 191.293 90.561 205.199L49.641 93.083C44.8813 103.752 42.2141 115.558 42.2141 127.994Z" fill="white"/>
<path d="M185.908 123.665C185.908 113.064 182.1 105.722 178.834 100.007C174.485 92.9406 170.409 86.9566 170.409 79.8904C170.409 72.0048 176.39 64.6644 184.814 64.6644C185.195 64.6644 185.555 64.7117 185.926 64.733C170.664 50.7507 150.331 42.2139 127.997 42.2139C98.0286 42.2139 71.6621 57.5901 56.3235 80.8796C58.3361 80.94 60.2328 80.9824 61.8439 80.9824C70.8166 80.9824 84.7058 79.8937 84.7058 79.8937C89.3301 79.6211 89.8753 86.4131 85.2559 86.9599C85.2559 86.9599 80.6087 87.5067 75.4376 87.7777L106.676 180.696L125.449 124.393L112.084 87.7744C107.465 87.5035 103.089 86.9566 103.089 86.9566C98.466 86.6857 99.008 79.6179 103.631 79.8904C103.631 79.8904 117.797 80.9792 126.226 80.9792C135.198 80.9792 149.088 79.8904 149.088 79.8904C153.716 79.6179 154.259 86.4098 149.638 86.9566C149.638 86.9566 144.981 87.5035 139.82 87.7744L170.821 179.989L179.377 151.397C183.086 139.531 185.908 131.009 185.908 123.665Z" fill="white"/>
<path d="M129.503 135.498L103.765 210.288C111.449 212.547 119.577 213.783 127.998 213.783C137.987 213.783 147.567 212.056 156.484 208.92C156.254 208.553 156.045 208.163 155.874 207.738L129.503 135.498Z" fill="white"/>
<path d="M203.269 86.8374C203.638 89.5698 203.847 92.5031 203.847 95.6583C203.847 104.363 202.221 114.149 197.324 126.385L171.121 202.144C196.624 187.272 213.778 159.643 213.778 127.996C213.779 113.081 209.97 99.0567 203.269 86.8374Z" fill="white"/>
<path d="M127.998 28C72.8603 28 28 72.857 28 127.994C28 183.138 72.8603 227.993 127.998 227.993C183.133 227.993 228 183.138 228 127.994C227.998 72.857 183.133 28 127.998 28ZM127.998 223.41C75.3887 223.41 32.5851 180.606 32.5851 127.994C32.5851 75.3855 75.3871 32.5851 127.998 32.5851C180.605 32.5851 223.405 75.3855 223.405 127.994C223.405 180.606 180.605 223.41 127.998 223.41Z" fill="white"/>
</g>
<defs>
<clipPath id="clip0_304_11487">
<rect width="256" height="256" fill="white"/>
</clipPath>
</defs>
</svg>
