<svg width="96" height="96" viewBox="0 0 96 96" fill="none" xmlns="http://www.w3.org/2000/svg">
<g clip-path="url(#clip0_304_14554)">
<path d="M73.5 0H22.5C10.0736 0 0 10.0736 0 22.5V73.5C0 85.9264 10.0736 96 22.5 96H73.5C85.9264 96 96 85.9264 96 73.5V22.5C96 10.0736 85.9264 0 73.5 0Z" fill="#0073AA"/>
<path d="M15.8303 47.9977C15.8303 60.7309 23.2301 71.7349 33.9603 76.9496L18.6153 34.9061C16.8305 38.907 15.8303 43.3342 15.8303 47.9977Z" fill="white"/>
<path d="M69.7155 46.3743C69.7155 42.399 68.2875 39.6457 67.0628 37.5026C65.4319 34.8528 63.9034 32.6088 63.9034 29.9589C63.9034 27.0018 66.1463 24.2492 69.3053 24.2492C69.4481 24.2492 69.5831 24.2669 69.7223 24.2749C63.999 19.0316 56.3742 15.8303 47.9989 15.8303C36.7608 15.8303 26.8733 21.5963 21.1213 30.3299C21.8761 30.3525 22.5873 30.3684 23.1915 30.3684C26.5562 30.3684 31.7647 29.9602 31.7647 29.9602C33.4988 29.858 33.7033 32.405 31.971 32.61C31.971 32.61 30.2283 32.8151 28.2891 32.9167L40.0035 67.761L47.0434 46.6473L42.0315 32.9154C40.2994 32.8139 38.6584 32.6088 38.6584 32.6088C36.9248 32.5072 37.128 29.8568 38.8616 29.9589C38.8616 29.9589 44.1739 30.3672 47.3348 30.3672C50.6993 30.3672 55.908 29.9589 55.908 29.9589C57.6435 29.8568 57.8471 32.4037 56.1143 32.6088C56.1143 32.6088 54.3679 32.8139 52.4325 32.9154L64.0579 67.4958L67.2664 56.7739C68.6573 52.3241 69.7155 49.1283 69.7155 46.3743Z" fill="white"/>
<path d="M48.5636 50.8118L38.9119 78.858C41.7934 79.7051 44.8414 80.1686 47.9992 80.1686C51.7451 80.1686 55.3376 79.521 58.6815 78.345C58.5952 78.2074 58.5169 78.0611 58.4527 77.9018L48.5636 50.8118Z" fill="white"/>
<path d="M76.2259 32.5641C76.3643 33.5887 76.4427 34.6887 76.4427 35.8719C76.4427 39.1361 75.8329 42.8059 73.9965 47.3944L64.1704 75.804C73.734 70.227 80.1668 59.8661 80.1668 47.9985C80.1672 42.4054 78.7388 37.1463 76.2259 32.5641Z" fill="white"/>
<path d="M47.9993 10.5C27.3226 10.5 10.5 27.3214 10.5 47.9978C10.5 68.6768 27.3226 85.4974 47.9993 85.4974C68.6749 85.4974 85.5 68.6768 85.5 47.9978C85.4992 27.3214 68.6749 10.5 47.9993 10.5ZM47.9993 83.7788C28.2708 83.7788 12.2194 67.7273 12.2194 47.9978C12.2194 28.2696 28.2702 12.2194 47.9993 12.2194C67.7269 12.2194 83.7769 28.2696 83.7769 47.9978C83.7769 67.7273 67.7269 83.7788 47.9993 83.7788Z" fill="white"/>
</g>
<defs>
<clipPath id="clip0_304_14554">
<rect width="96" height="96" fill="white"/>
</clipPath>
</defs>
</svg>
