<svg width="96" height="96" viewBox="0 0 96 96" fill="none" xmlns="http://www.w3.org/2000/svg">
<g clip-path="url(#clip0_304_16357)">
<path d="M73.5 0H22.5C10.0736 0 0 10.0736 0 22.5V73.5C0 85.9264 10.0736 96 22.5 96H73.5C85.9264 96 96 85.9264 96 73.5V22.5C96 10.0736 85.9264 0 73.5 0Z" fill="#3068B7"/>
<mask id="mask0_304_16357" style="mask-type:luminance" maskUnits="userSpaceOnUse" x="17" y="23" width="62" height="50">
<path d="M78.75 23.625H17.625V72.75H78.75V23.625Z" fill="white"/>
</mask>
<g mask="url(#mask0_304_16357)">
<path d="M66.2396 23.9337L78.75 36.9966L49.5142 69.7977L47.1585 72.4414L17.625 36.8769L30.6344 23.9337H66.2396ZM21.8375 37.1774L39.4976 26.9823H31.89L21.7484 37.073L21.8375 37.1774ZM52.698 26.9823L26.1137 42.3297L31.587 48.921L59.1161 33.026L58.6069 32.1448L65.868 27.9526L64.9384 26.9823H52.698ZM71.8504 34.2001L38.6546 53.3678H51.6461V52.3493H60.9855L74.601 37.073L71.8504 34.2001ZM53.694 60.5295H41.2294L47.2402 67.7704L53.694 60.5295Z" fill="white"/>
</g>
</g>
<defs>
<clipPath id="clip0_304_16357">
<rect width="96" height="96" fill="white"/>
</clipPath>
</defs>
</svg>
