<svg width="256" height="256" viewBox="0 0 256 256" fill="none" xmlns="http://www.w3.org/2000/svg">
<g clip-path="url(#clip0_304_16357)">
<path d="M196 0H60C26.8629 0 0 26.8629 0 60V196C0 229.137 26.8629 256 60 256H196C229.137 256 256 229.137 256 196V60C256 26.8629 229.137 0 196 0Z" fill="#3068B7"/>
<mask id="mask0_304_16357" style="mask-type:luminance" maskUnits="userSpaceOnUse" x="47" y="63" width="163" height="131">
<path d="M210 63H47V194H210V63Z" fill="white"/>
</mask>
<g mask="url(#mask0_304_16357)">
<path d="M176.639 63.823L210 98.6575L132.038 186.127L125.756 193.177L47 98.3382L81.6918 63.823H176.639ZM58.2334 99.1397L105.327 71.9526H85.0401L57.9957 98.8612L58.2334 99.1397ZM140.528 71.9526L69.6366 112.879L84.2319 130.456L157.643 88.0692L156.285 85.7193L175.648 74.5402L173.169 71.9526H140.528ZM191.601 91.2002L103.079 142.314H137.723V139.598H162.628L198.936 98.8612L191.601 91.2002ZM143.184 161.412H109.945L125.974 180.721L143.184 161.412Z" fill="white"/>
</g>
</g>
<defs>
<clipPath id="clip0_304_16357">
<rect width="256" height="256" fill="white"/>
</clipPath>
</defs>
</svg>
